<svg id="eRZTFnrAU4m1" xmlns="http://www.w3.org/2000/svg" xmlns:xlink="http://www.w3.org/1999/xlink" viewBox="0 0 1030.010000 729.860000" shape-rendering="geometricPrecision" text-rendering="geometricPrecision"><defs><linearGradient id="eRZTFnrAU4m63-fill" x1="889.130000" y1="701.850000" x2="889.130000" y2="363.300000" spreadMethod="pad" gradientUnits="userSpaceOnUse"><stop id="eRZTFnrAU4m63-fill-0" offset="0%" stop-color="rgba(128,128,128,0.25)"/><stop id="eRZTFnrAU4m63-fill-1" offset="54%" stop-color="rgba(128,128,128,0.12)"/><stop id="eRZTFnrAU4m63-fill-2" offset="100%" stop-color="rgba(128,128,128,0.1)"/></linearGradient><linearGradient id="eRZTFnrAU4m97-fill" x1="376.530000" y1="777.060000" x2="376.530000" y2="381.850000" spreadMethod="pad" gradientUnits="userSpaceOnUse"><stop id="eRZTFnrAU4m97-fill-0" offset="0%" stop-color="rgba(128,128,128,0.25)"/><stop id="eRZTFnrAU4m97-fill-1" offset="54%" stop-color="rgba(128,128,128,0.12)"/><stop id="eRZTFnrAU4m97-fill-2" offset="100%" stop-color="rgba(128,128,128,0.1)"/></linearGradient></defs><ellipse id="eRZTFnrAU4m2" rx="211.360000" ry="41.080000" transform="matrix(1 0 0 1 814.65999999999997 585.22000000000003)" opacity="0.1" fill="rgb(249,4,125)" stroke="none" stroke-width="1"/><g id="eRZTFnrAU4m3" opacity="0.5"><path id="eRZTFnrAU4m4" d="M718.610000,188.630000C715.760000,189.440000,712.270000,191.550000,710.550000,197.320000C707.180000,208.630000,715.010000,216.320000,712.430000,228.110000C711.713884,231.237468,710.351362,234.180516,708.430000,236.750000C705.280000,241.020000,701.860000,243.040000,698.540000,246.030000C694.328709,249.849854,691.310993,254.805298,689.850000,260.300000C688.249015,266.364664,688.115327,272.723406,689.460000,278.850000C690.640000,283.970000,692.650000,287.700000,694.410000,291.850000C696.598276,297.143297,698.308431,302.621817,699.520000,308.220000C700.185084,310.946191,700.560498,313.734980,700.640000,316.540000C700.590207,320.266717,700.255902,323.984192,699.640000,327.660000L694.850000,361.080000C694.122477,365.449624,693.684855,369.862595,693.540000,374.290000C693.602634,378.727094,694.115259,383.146387,695.070000,387.480000C696.750000,396.320000,698.560000,405.480000,702.410000,410.160000C706.260000,414.840000,712.820000,413.160000,716.850000,403.690000C720.680000,394.630000,720.770000,382.540000,724.150000,372.860000C729.480000,357.610000,740.070000,355.560000,745.950000,341.010000C751.590000,327.010000,749.860000,309.930000,752.720000,294.010000C754.720000,282.600000,759.130000,272.200000,761.720000,260.930000C765.440000,244.700000,765.070000,227.850000,762.100000,215.370000C759.841159,205.115796,754.954587,195.625233,747.920000,187.830000C745.430000,185.080000,742.760000,182.630000,739.630000,182.380000C736.300000,182.120000,733.390000,186.310000,730.100000,187.570000C726.300000,189.060000,722.480000,187.530000,718.610000,188.630000Z" transform="matrix(1 0 0 1 -84.98999999999999 -85.06999999999999)" fill="rgb(249,4,125)" stroke="none" stroke-width="1"/><path id="eRZTFnrAU4m5" d="M736.640000,183.230000C736.640000,183.230000,731,327.570000,707.280000,412.680000" transform="matrix(1 0 0 1 -84.98999999999999 -85.06999999999999)" fill="none" stroke="rgb(83,84,97)" stroke-width="2" stroke-miterlimit="10"/><path id="eRZTFnrAU4m6" d="M710.410000,198C710.410000,198,735.760000,221.080000,730.950000,265" transform="matrix(1 0 0 1 -84.98999999999999 -85.06999999999999)" fill="none" stroke="rgb(83,84,97)" stroke-width="2" stroke-miterlimit="10"/><path id="eRZTFnrAU4m7" d="M689.140000,263.680000C689.140000,263.680000,730.750000,272.050000,727.660000,296.940000" transform="matrix(1 0 0 1 -84.98999999999999 -85.06999999999999)" fill="none" stroke="rgb(83,84,97)" stroke-width="2" stroke-miterlimit="10"/><path id="eRZTFnrAU4m8" d="M762.170000,215.070000C762.170000,215.070000,745.330000,229.810000,730.330000,271.560000" transform="matrix(1 0 0 1 -84.98999999999999 -85.06999999999999)" fill="none" stroke="rgb(83,84,97)" stroke-width="2" stroke-miterlimit="10"/><path id="eRZTFnrAU4m9" d="M745.720000,341.250000C745.720000,341.250000,734.230000,350.250000,725.010000,318.740000" transform="matrix(1 0 0 1 -84.98999999999999 -85.06999999999999)" fill="none" stroke="rgb(83,84,97)" stroke-width="2" stroke-miterlimit="10"/><path id="eRZTFnrAU4m10" d="M696.140000,359.660000C696.140000,359.660000,719.570000,356.600000,721.730000,341.930000" transform="matrix(1 0 0 1 -84.98999999999999 -85.06999999999999)" fill="none" stroke="rgb(83,84,97)" stroke-width="2" stroke-miterlimit="10"/></g><path id="eRZTFnrAU4m11" d="M775.250000,91.820000C769.450000,92.680000,762.470000,95.370000,759.600000,103.660000C753.970000,119.920000,771.080000,132.230000,767.140000,149.220000C765.964394,153.895588,763.488911,158.142739,760,161.470000C754,167.380000,747.140000,169.960000,740.640000,173.970000C734.140000,177.980000,727.390000,184.290000,724.340000,193.970000C721.410000,203.280000,722.680000,213.560000,725.730000,221.240000C728.780000,228.920000,733.390000,234.650000,737.510000,240.970000C742.516704,248.749022,746.702464,257.026706,750,265.670000C751.663135,269.609586,752.780134,273.757960,753.320000,278C753.850000,283.200000,753.180000,288.790000,752.510000,294.260000L746.560000,343C745.770000,349.480000,744.970000,356.060000,745.420000,362.300000C745.930000,369.490000,748.060000,375.770000,750.160000,381.900000C754.680000,395.120000,759.520000,408.900000,768.050000,416.180000C776.580000,423.460000,789.960000,421.900000,797.170000,408.360000C804.030000,395.470000,802.770000,377.680000,808.620000,363.830000C817.840000,342,839.520000,340.230000,849.950000,319.510000C859.950000,299.630000,854.360000,274.200000,858.380000,251.100000C861.260000,234.550000,869.060000,219.750000,873.060000,203.460000C878.830000,179.990000,876.060000,155.140000,868.440000,136.460000C860.820000,117.780000,848.770000,104.460000,835.840000,94.230000C830.360000,89.880000,824.550000,85.950000,818.040000,85.230000C811.120000,84.460000,805.590000,90.280000,798.940000,91.750000C791.200000,93.360000,783.120000,90.650000,775.250000,91.820000Z" transform="matrix(1 0 0 1 -84.98999999999999 -85.06999999999999)" fill="rgb(249,4,125)" stroke="none" stroke-width="1"/><path id="eRZTFnrAU4m12" d="M811.930000,86C811.930000,86,817.390000,297.890000,778.370000,420.420000" transform="matrix(1 0 0 1 -84.98999999999999 -85.06999999999999)" fill="none" stroke="rgb(83,84,97)" stroke-width="2" stroke-miterlimit="10"/><path id="eRZTFnrAU4m13" d="M759.380000,104.680000C759.380000,104.680000,814.580000,141.680000,809.850000,205.840000" transform="matrix(1 0 0 1 -84.98999999999999 -85.06999999999999)" fill="none" stroke="rgb(83,84,97)" stroke-width="2" stroke-miterlimit="10"/><path id="eRZTFnrAU4m14" d="M723.150000,198.850000C723.150000,198.850000,810.270000,216.110000,806.830000,252.390000" transform="matrix(1 0 0 1 -84.98999999999999 -85.06999999999999)" fill="none" stroke="rgb(83,84,97)" stroke-width="2" stroke-miterlimit="10"/><path id="eRZTFnrAU4m15" d="M868.540000,135.920000C868.540000,135.920000,835.430000,155.630000,809.350000,215.330000" transform="matrix(1 0 0 1 -84.98999999999999 -85.06999999999999)" fill="none" stroke="rgb(83,84,97)" stroke-width="2" stroke-miterlimit="10"/><path id="eRZTFnrAU4m16" d="M849.430000,319.790000C849.430000,319.790000,826.730000,331.790000,803.900000,284.180000" transform="matrix(1 0 0 1 -84.98999999999999 -85.06999999999999)" fill="none" stroke="rgb(83,84,97)" stroke-width="2" stroke-miterlimit="10"/><path id="eRZTFnrAU4m17" d="M749,341C749,341,797.130000,339.270000,799.870000,317.920000" transform="matrix(1 0 0 1 -84.98999999999999 -85.06999999999999)" fill="none" stroke="rgb(83,84,97)" stroke-width="2" stroke-miterlimit="10"/><path id="eRZTFnrAU4m18" d="M152.240000,663.660000C152.240000,663.660000,160.620000,674.660000,148.370000,691.160000C136.120000,707.660000,126,721.680000,130.110000,732C130.110000,732,148.590000,701.270000,163.630000,700.840000C178.670000,700.410000,168.790000,682.140000,152.240000,663.660000Z" transform="matrix(1 0 0 1 -84.98999999999999 -85.06999999999999)" fill="rgb(249,4,125)" stroke="none" stroke-width="1"/><path id="eRZTFnrAU4m19" d="M152.240000,663.660000C152.987757,664.716841,153.580431,665.875249,154,667.100000C168.680000,684.340000,176.490000,700.430000,162.390000,700.840000C149.250000,701.220000,133.490000,724.710000,129.710000,730.650000C129.834731,731.108032,129.984966,731.558735,130.160000,732C130.335034,732.441265,148.640000,701.270000,163.680000,700.840000C178.720000,700.410000,168.790000,682.140000,152.240000,663.660000Z" transform="matrix(1 0 0 1 -84.98999999999999 -85.06999999999999)" opacity="0.1" fill="rgb(0,0,0)" stroke="none" stroke-width="1"/><path id="eRZTFnrAU4m20" d="M167.820000,677.630000C167.820000,681.490000,167.390000,684.630000,166.820000,684.630000C166.250000,684.630000,165.820000,681.500000,165.820000,677.630000C165.820000,673.760000,166.360000,675.630000,166.890000,675.630000C167.420000,675.630000,167.820000,673.770000,167.820000,677.630000Z" transform="matrix(1 0 0 1 -84.98999999999999 -85.06999999999999)" fill="rgb(255,208,55)" stroke="none" stroke-width="1"/><path id="eRZTFnrAU4m21" d="M173.170000,682.230000C169.780000,684.080000,166.830000,685.230000,166.580000,684.720000C166.330000,684.210000,168.860000,682.370000,172.250000,680.530000C175.640000,678.690000,174.300000,680.030000,174.560000,680.530000C174.820000,681.030000,176.550000,680.380000,173.170000,682.230000Z" transform="matrix(1 0 0 1 -84.98999999999999 -85.06999999999999)" fill="rgb(255,208,55)" stroke="none" stroke-width="1"/><path id="eRZTFnrAU4m22" d="M108,663.660000C108,663.660000,99.620000,674.660000,111.870000,691.160000C124.120000,707.660000,134.220000,721.670000,130.130000,731.990000C130.130000,731.990000,111.650000,701.260000,96.610000,700.830000C81.570000,700.400000,91.430000,682.140000,108,663.660000Z" transform="matrix(1 0 0 1 -84.98999999999999 -85.06999999999999)" fill="rgb(249,4,125)" stroke="none" stroke-width="1"/><path id="eRZTFnrAU4m23" d="M108,663.660000C107.269756,664.719775,106.693988,665.878045,106.290000,667.100000C91.610000,684.340000,83.800000,700.430000,97.900000,700.840000C111.040000,701.220000,126.800000,724.710000,130.580000,730.650000C130.455269,731.108032,130.305034,731.558735,130.130000,732C129.954966,732.441265,111.650000,701.270000,96.610000,700.840000C81.570000,700.410000,91.430000,682.140000,108,663.660000Z" transform="matrix(1 0 0 1 -84.98999999999999 -85.06999999999999)" opacity="0.1" fill="rgb(0,0,0)" stroke="none" stroke-width="1"/><path id="eRZTFnrAU4m24" d="M92.400000,677.630000C92.400000,681.490000,92.830000,684.630000,93.400000,684.630000C93.970000,684.630000,94.400000,681.500000,94.400000,677.630000C94.400000,673.760000,93.860000,675.630000,93.330000,675.630000C92.800000,675.630000,92.400000,673.770000,92.400000,677.630000Z" transform="matrix(1 0 0 1 -84.98999999999999 -85.06999999999999)" fill="rgb(255,208,55)" stroke="none" stroke-width="1"/><path id="eRZTFnrAU4m25" d="M87.050000,682.230000C90.440000,684.080000,93.390000,685.230000,93.640000,684.720000C93.890000,684.210000,91.360000,682.370000,87.970000,680.530000C84.580000,678.690000,85.920000,680.030000,85.660000,680.530000C85.400000,681.030000,83.670000,680.380000,87.050000,682.230000Z" transform="matrix(1 0 0 1 -84.98999999999999 -85.06999999999999)" fill="rgb(255,208,55)" stroke="none" stroke-width="1"/><path id="eRZTFnrAU4m26" d="M95.070000,730.560000C95.070000,730.560000,118.500000,729.840000,125.560000,724.810000C132.620000,719.780000,161.560000,713.810000,163.350000,721.810000C165.140000,729.810000,198.560000,761.920000,172.110000,762.130000C145.660000,762.340000,110.650000,758.010000,103.600000,753.720000C96.550000,749.430000,95.070000,730.560000,95.070000,730.560000Z" transform="matrix(1 0 0 1 -84.98999999999999 -85.06999999999999)" fill="rgb(168,168,168)" stroke="none" stroke-width="1"/><path id="eRZTFnrAU4m27" d="M172.580000,759.350000C146.130000,759.560000,111.120000,755.230000,104.070000,750.940000C98.700000,747.670000,96.560000,735.940000,95.850000,730.530000L95.070000,730.530000C95.070000,730.530000,96.550000,749.430000,103.600000,753.720000C110.650000,758.010000,145.660000,762.350000,172.110000,762.130000C179.750000,762.070000,182.380000,759.350000,182.240000,755.330000C181.180000,757.790000,178.270000,759.310000,172.580000,759.350000Z" transform="matrix(1 0 0 1 -84.98999999999999 -85.06999999999999)" opacity="0.2" fill="rgb(0,0,0)" stroke="none" stroke-width="1"/><path id="eRZTFnrAU4m28" d="M1067.350000,659.110000C1069.182770,657.615856,1070.518405,655.600199,1071.180000,653.330000C1071.680000,651.030000,1070.700000,648.280000,1068.500000,647.440000C1066.040000,646.500000,1063.410000,648.200000,1061.420000,649.930000C1059.430000,651.660000,1057.140000,653.620000,1054.530000,653.250000C1057.258729,650.776480,1058.488783,647.052148,1057.770000,643.440000C1057.657181,642.703976,1057.346049,642.012571,1056.870000,641.440000C1055.500000,639.980000,1053.030000,640.610000,1051.390000,641.760000C1046.190000,645.420000,1044.740000,652.480000,1044.710000,658.840000C1044.190000,656.550000,1044.630000,654.160000,1044.610000,651.840000C1044.590000,649.520000,1043.950000,646.840000,1041.970000,645.620000C1040.742191,644.960285,1039.363325,644.632804,1037.970000,644.670000C1035.630000,644.580000,1033.030000,644.820000,1031.430000,646.530000C1029.430000,648.650000,1029.960000,652.220000,1031.690000,654.530000C1033.420000,656.840000,1036.040000,658.330000,1038.460000,659.950000C1040.399532,661.103074,1042.053936,662.678859,1043.300000,664.560000C1043.446557,664.820888,1043.567135,665.095540,1043.660000,665.380000L1058.310000,665.380000C1061.592397,663.707398,1064.633328,661.598257,1067.350000,659.110000Z" transform="matrix(1 0 0 1 -84.98999999999999 -85.06999999999999)" fill="rgb(249,4,125)" stroke="none" stroke-width="1"/><path id="eRZTFnrAU4m29" d="M231.720000,565.390000C263.540000,605.850000,251.180000,664.960000,230.960000,712.290000C224.190000,728.140000,216.530000,744.910000,219.390000,761.900000C222.880000,782.680000,241.390000,797.900000,260.910000,805.900000C296.410000,820.580000,338.910000,817.080000,371.520000,796.790000C399.710000,779.250000,419.900000,750.730000,448.570000,733.990000C496.570000,705.990000,557.630000,716.560000,609.730000,735.850000C646.590000,749.500000,686.890000,767.260000,723.520000,752.990000C749.290000,742.990000,767.110000,718.520000,776.820000,692.620000C781.510000,680.110000,784.910000,666.620000,793.820000,656.620000C799.140000,650.730000,806.080000,646.540000,813.200000,643.020000C878.200000,610.810000,960.200000,628.020000,1023.280000,592.340000C1065.890000,568.220000,1093.170000,522.710000,1105.280000,475.260000C1117.390000,427.810000,1115.950000,378.050000,1112.880000,329.190000C1110.700000,294.460000,1106.790000,257.390000,1084.600000,230.580000C1061.130000,202.230000,1020.840000,191.680000,984.430000,197.070000C948.020000,202.460000,915,221.760000,886,244.380000C849.710000,272.650000,816.060000,307.860000,771.500000,319.320000C741.160000,327.120000,709.240000,322.850000,677.940000,321.380000C625.620000,318.910000,573.290000,324.380000,521.260000,330.380000C471.450000,336.140000,421.260000,342.480000,373.830000,358.680000C340.250000,370.150000,313.330000,390.960000,281.620000,405.500000C260.950000,414.980000,238.410000,417.600000,218.850000,429.670000C194.740000,444.540000,172.650000,470.410000,178.850000,500.670000C184.670000,529.480000,214.820000,543.920000,231.720000,565.390000Z" transform="matrix(1 0 0 1 -84.98999999999999 -85.06999999999999)" opacity="0.1" fill="rgb(249,4,125)" stroke="none" stroke-width="1"/><ellipse id="eRZTFnrAU4m30" rx="427.670000" ry="41.080000" transform="matrix(1 0 0 1 552.35000000000002 439.22000000000003)" opacity="0.1" fill="rgb(249,4,125)" stroke="none" stroke-width="1"/><ellipse id="eRZTFnrAU4m31" rx="211.360000" ry="41.080000" transform="matrix(1 0 0 1 223.66000000000000 676.22000000000003)" opacity="0.1" fill="rgb(249,4,125)" stroke="none" stroke-width="1"/><path id="eRZTFnrAU4m32" d="M524.710000,511.480000L521.360000,516.350000C521.360000,516.350000,525.010000,521.220000,525.360000,521.830000C525.710000,522.440000,536.010000,521.530000,536.010000,521.530000L536.920000,517.880000L535.400000,513.620000Z" transform="matrix(1 0 0 1 -84.98999999999999 -85.06999999999999)" fill="rgb(230,230,240)" stroke="none" stroke-width="1"/><polygon id="eRZTFnrAU4m33" points="327.090000,423.670000 320.390000,424.880000 324.650000,433.110000 329.220000,435.540000 333.480000,438.580000 334.700000,435.240000 331.650000,428.840000 327.090000,423.670000" fill="rgb(253,194,204)" stroke="none" stroke-width="1"/><path id="eRZTFnrAU4m34" d="M521.670000,429.590000C521.670000,429.590000,557.290000,438.110000,563.980000,447.590000C563.980000,447.590000,570.070000,452.770000,563.980000,462.200000C557.890000,471.630000,549.370000,492.950000,549.370000,492.950000C549.370000,492.950000,543.280000,513.650000,540.850000,515.170000C538.420000,516.690000,524.410000,517.910000,523.190000,512.170000C523.190000,512.170000,531.100000,499.690000,531.100000,493.900000C531.100000,488.110000,544.190000,460.720000,544.190000,460.720000C544.190000,460.720000,514.360000,457.370000,504.920000,459.500000C495.480000,461.630000,509.190000,426.240000,521.670000,429.590000Z" transform="matrix(1 0 0 1 -84.98999999999999 -85.06999999999999)" fill="rgb(86,81,113)" stroke="none" stroke-width="1"/><path id="eRZTFnrAU4m35" d="M521.670000,429.590000C521.670000,429.590000,557.290000,438.110000,563.980000,447.590000C563.980000,447.590000,570.070000,452.770000,563.980000,462.200000C557.890000,471.630000,549.370000,492.950000,549.370000,492.950000C549.370000,492.950000,543.280000,513.650000,540.850000,515.170000C538.420000,516.690000,524.410000,517.910000,523.190000,512.170000C523.190000,512.170000,531.100000,499.690000,531.100000,493.900000C531.100000,488.110000,544.190000,460.720000,544.190000,460.720000C544.190000,460.720000,514.360000,457.370000,504.920000,459.500000C495.480000,461.630000,509.190000,426.240000,521.670000,429.590000Z" transform="matrix(1 0 0 1 -84.98999999999999 -85.06999999999999)" opacity="0.1" fill="rgb(0,0,0)" stroke="none" stroke-width="1"/><path id="eRZTFnrAU4m36" d="M514.360000,437.810000C514.290000,439.580000,514.100000,441.570000,513.830000,443.710000C511.880000,459.210000,505.530000,482.260000,505.530000,482.260000C505.530000,482.260000,499.140000,495.960000,497.310000,504.790000C495.480000,513.620000,483,515.790000,483,515.790000C483,515.790000,448.900000,519.790000,441.900000,518.230000C434.900000,516.670000,423.900000,522.800000,418.460000,521.880000C413.020000,520.960000,409.630000,508.180000,409.630000,508.180000C419.071628,508.235400,428.415244,506.264374,437.030000,502.400000C451.030000,496.010000,471.130000,499.050000,471.130000,499.050000C474.160050,498.170107,476.692716,496.078849,478.130000,493.270000C480.260000,488.700000,480.260000,461,479.650000,459.170000C475.650000,447.170000,475.980000,439.470000,477.130000,434.980000C477.514935,433.018816,478.380845,431.183911,479.650000,429.640000Z" transform="matrix(1 0 0 1 -84.98999999999999 -85.06999999999999)" fill="rgb(86,81,113)" stroke="none" stroke-width="1"/><path id="eRZTFnrAU4m37" d="M514.360000,437.810000C514.290000,439.580000,514.100000,441.570000,513.830000,443.710000C510.770000,443.950000,502.190000,444.180000,495.830000,440.250000C489.830000,436.570000,481.100000,435.320000,477.170000,434.930000C477.554935,432.968816,478.420845,431.133911,479.690000,429.590000Z" transform="matrix(1 0 0 1 -84.98999999999999 -85.06999999999999)" opacity="0.1" fill="rgb(0,0,0)" stroke="none" stroke-width="1"/><path id="eRZTFnrAU4m38" d="M518.570000,434C517.150000,438,514.970000,442.690000,514.970000,442.690000C514.970000,442.690000,503.710000,444.210000,495.790000,439.340000C487.870000,434.470000,475.090000,433.860000,475.090000,433.860000C477.160000,432.590000,478.560000,428.730000,479.430000,425.350000C479.915745,423.438961,480.296316,421.502720,480.570000,419.550000C480.843684,417.597280,518.010000,427.160000,519.570000,428.380000C520.150000,428.860000,519.530000,431.280000,518.570000,434Z" transform="matrix(1 0 0 1 -84.98999999999999 -85.06999999999999)" fill="rgb(230,230,240)" stroke="none" stroke-width="1"/><path id="eRZTFnrAU4m39" d="M585.290000,305.690000L539.880000,333.100000L535.370000,335.820000L535.370000,322.430000L538.500000,320.930000L576.770000,302.640000C576.770000,302.640000,578.600000,269.460000,583.470000,274.640000C588.340000,279.820000,585.290000,305.690000,585.290000,305.690000Z" transform="matrix(1 0 0 1 -84.98999999999999 -85.06999999999999)" fill="rgb(253,194,204)" stroke="none" stroke-width="1"/><path id="eRZTFnrAU4m40" d="M539.880000,333.100000L535.370000,335.820000L535.370000,322.430000L538.500000,320.930000C538.707200,325.011357,539.168090,329.075873,539.880000,333.100000Z" transform="matrix(1 0 0 1 -84.98999999999999 -85.06999999999999)" opacity="0.1" fill="rgb(0,0,0)" stroke="none" stroke-width="1"/><path id="eRZTFnrAU4m41" d="M504.930000,338L537.500000,319.130000C537.500000,319.130000,538.110000,337.400000,541.760000,340.130000C541.760000,340.130000,528.370000,344.130000,523.190000,352.610000Z" transform="matrix(1 0 0 1 -84.98999999999999 -85.06999999999999)" fill="rgb(180,81,129)" stroke="none" stroke-width="1"/><path id="eRZTFnrAU4m42" d="M504.930000,338L537.500000,319.130000C537.500000,319.130000,538.110000,337.400000,541.760000,340.130000C541.760000,340.130000,528.370000,344.130000,523.190000,352.610000Z" transform="matrix(1 0 0 1 -84.98999999999999 -85.06999999999999)" opacity="0.1" fill="rgb(204,26,214)" stroke="none" stroke-width="1"/><path id="eRZTFnrAU4m43" d="M585,354.090000C585,354.090000,569.510000,360.840000,559.250000,363.320000C556.941246,364.016315,554.526549,364.294022,552.120000,364.140000C545.120000,362.920000,553.950000,354.140000,553.950000,354.140000L557.630000,353.570000L577.390000,350.490000C577.390000,350.490000,579.520000,320.050000,583.170000,322.490000C586.820000,324.930000,585,354.090000,585,354.090000Z" transform="matrix(1 0 0 1 -84.98999999999999 -85.06999999999999)" fill="rgb(253,194,204)" stroke="none" stroke-width="1"/><path id="eRZTFnrAU4m44" d="M519.540000,326.690000C519.540000,326.690000,506.450000,336.430000,511.320000,348.610000C516.190000,360.790000,486.050000,341.300000,486.050000,341.300000C486.050000,341.300000,495.790000,326.690000,497.920000,315.730000C500.050000,304.770000,519.540000,326.690000,519.540000,326.690000Z" transform="matrix(1 0 0 1 -84.98999999999999 -85.06999999999999)" fill="rgb(253,194,204)" stroke="none" stroke-width="1"/><path id="eRZTFnrAU4m45" d="M518.570000,434C512.908442,431.867675,506.991038,430.489189,500.970000,429.900000C492.170000,428.900000,484.110000,427.210000,479.440000,425.350000C479.925745,423.438961,480.306316,421.502720,480.580000,419.550000C480.853684,417.597280,518.020000,427.160000,519.580000,428.380000C520.150000,428.860000,519.530000,431.280000,518.570000,434Z" transform="matrix(1 0 0 1 -84.98999999999999 -85.06999999999999)" opacity="0.1" fill="rgb(0,0,0)" stroke="none" stroke-width="1"/><path id="eRZTFnrAU4m46" d="M559.240000,363.320000C556.931246,364.016315,554.516549,364.294022,552.110000,364.140000C545.110000,362.920000,553.940000,354.140000,553.940000,354.140000L557.620000,353.570000C559.160000,355.940000,560.730000,359.640000,559.240000,363.320000Z" transform="matrix(1 0 0 1 -84.98999999999999 -85.06999999999999)" opacity="0.1" fill="rgb(0,0,0)" stroke="none" stroke-width="1"/><path id="eRZTFnrAU4m47" d="M498.230000,332.170000C498.230000,332.170000,486.360000,331.870000,482.100000,336.740000C477.840000,341.610000,478.750000,354.740000,478.750000,354.740000C478.750000,354.740000,477.860000,381.030000,484.530000,395.740000C484.749972,396.214795,484.775102,396.756890,484.600000,397.250000C484.530000,397.430000,484.530000,397.320000,484.530000,397.320000C484.530000,397.320000,480.270000,416.500000,476.010000,419.850000C471.750000,423.200000,485.140000,427.160000,501.010000,428.980000C516.880000,430.800000,523.230000,435.370000,523.230000,435.370000C523.230000,435.370000,525.970000,432.370000,526.230000,425.630000C526.490000,418.890000,522,369.920000,522,369.920000C522,369.920000,538.740000,374.180000,548.790000,369.010000C548.790000,369.010000,553.360000,371.450000,557.620000,364.750000C561.880000,358.050000,554.620000,350.750000,554.620000,350.750000C554.620000,350.750000,547.920000,357.450000,529.350000,348.620000C510.780000,339.790000,504,331.870000,498.230000,332.170000Z" transform="matrix(1 0 0 1 -84.98999999999999 -85.06999999999999)" fill="rgb(204,26,214)" stroke="none" stroke-width="1"/><path id="eRZTFnrAU4m48" d="M407.210000,509.350000L403.560000,509.350000L403.560000,514.530000L407.210000,522.750000C407.210000,522.750000,412.080000,523.660000,412.390000,523.660000C412.700000,523.660000,416.650000,522.750000,416.650000,522.750000L417.870000,520.620000C417.870000,520.620000,404.470000,515.430000,407.210000,509.350000Z" transform="matrix(1 0 0 1 -84.98999999999999 -85.06999999999999)" fill="rgb(230,230,240)" stroke="none" stroke-width="1"/><path id="eRZTFnrAU4m49" d="M521.670000,514.220000L516.190000,526.400000L539.330000,537.400000L557.600000,538.010000C557.600000,538.010000,559.120000,533.750000,553.030000,531.620000L548.160000,530.710000C548.160000,530.710000,541.770000,519.140000,541.160000,513.710000C541.160000,513.710000,535.070000,514.930000,534.160000,519.490000C534.150000,519.390000,525.630000,523.650000,521.670000,514.220000Z" transform="matrix(1 0 0 1 -84.98999999999999 -85.06999999999999)" fill="rgb(180,81,129)" stroke="none" stroke-width="1"/><path id="eRZTFnrAU4m50" d="M404.470000,508.130000L402.610000,509.650000L394.430000,516.350000L413.300000,541.350000C413.300000,541.350000,423.950000,545.920000,428.830000,541.350000C428.830000,541.350000,431.830000,538.350000,425.180000,535.870000C425.180000,535.870000,420,536.780000,420,531.610000C420,526.440000,421.220000,520.960000,423,519.740000C423,519.740000,418.430000,518.220000,417.220000,519.440000C416.288903,520.465949,415.470864,521.589076,414.780000,522.790000C414.089136,523.990924,403.860000,518.480000,404.470000,508.130000Z" transform="matrix(1 0 0 1 -84.98999999999999 -85.06999999999999)" fill="rgb(180,81,129)" stroke="none" stroke-width="1"/><path id="eRZTFnrAU4m51" d="M497.320000,316.340000C497.010806,317.884418,496.603310,319.407517,496.100000,320.900000C499.387699,328.808919,508.369634,332.668448,516.370000,329.610000C517.172758,328.782057,518.031446,328.010240,518.940000,327.300000C519.848554,326.589760,499.450000,305.380000,497.320000,316.340000Z" transform="matrix(1 0 0 1 -84.98999999999999 -85.06999999999999)" opacity="0.1" fill="rgb(0,0,0)" stroke="none" stroke-width="1"/><path id="eRZTFnrAU4m52" d="M495.640000,357C495.640000,357,505.080000,369.480000,518.780000,369.790000" transform="matrix(1 0 0 1 -84.98999999999999 -85.06999999999999)" opacity="0.1" fill="rgb(0,0,0)" stroke="none" stroke-width="1"/><g id="eRZTFnrAU4m53" opacity="0.1"><path id="eRZTFnrAU4m54" d="M552.060000,369.220000C551.867591,369.166391,551.680216,369.096125,551.500000,369.010000Q551.060000,369.240000,550.600000,369.440000C551.094156,369.430388,551.584954,369.356432,552.060000,369.220000Z" transform="matrix(1 0 0 1 -84.98999999999999 -85.06999999999999)" fill="rgb(0,0,0)" stroke="none" stroke-width="1"/><path id="eRZTFnrAU4m55" d="M555.300000,352C554.968758,351.574654,554.614915,351.167401,554.240000,350.780000C553.865085,350.392599,552.240000,352.780000,547.300000,353.160000C550.021333,353.430219,552.767493,353.032026,555.300000,352Z" transform="matrix(1 0 0 1 -84.98999999999999 -85.06999999999999)" fill="rgb(0,0,0)" stroke="none" stroke-width="1"/><path id="eRZTFnrAU4m56" d="M524.710000,369.920000L524.770000,370.570000C528.785804,371.313862,532.866646,371.648906,536.950000,371.570000C532.826013,371.419790,528.726554,370.867166,524.710000,369.920000Z" transform="matrix(1 0 0 1 -84.98999999999999 -85.06999999999999)" fill="rgb(0,0,0)" stroke="none" stroke-width="1"/><path id="eRZTFnrAU4m57" d="M503.710000,429C487.880000,427.170000,474.490000,423.220000,478.710000,419.870000C482.930000,416.520000,487.230000,397.340000,487.230000,397.340000C487.230000,397.340000,487.230000,397.450000,487.300000,397.270000C487.475102,396.776890,487.449972,396.234795,487.230000,395.760000C480.560000,381.010000,481.450000,354.760000,481.450000,354.760000C481.450000,354.760000,480.540000,341.670000,484.800000,336.760000C487.970000,333.130000,495.360000,332.380000,498.930000,332.230000C498.597166,332.204202,498.262834,332.204202,497.930000,332.230000C497.597166,332.255798,486.060000,331.930000,481.800000,336.800000C477.540000,341.670000,478.450000,354.800000,478.450000,354.800000C478.450000,354.800000,477.560000,381.090000,484.230000,395.800000C484.449972,396.274795,484.475102,396.816890,484.300000,397.310000C484.230000,397.490000,484.230000,397.380000,484.230000,397.380000C484.230000,397.380000,480,416.500000,475.700000,419.850000C471.400000,423.200000,484.830000,427.160000,500.700000,428.980000C516.570000,430.800000,522.920000,435.370000,522.920000,435.370000C523.238595,434.987734,523.519877,434.575856,523.760000,434.140000C520.670000,432.650000,514.310000,430.200000,503.710000,429Z" transform="matrix(1 0 0 1 -84.98999999999999 -85.06999999999999)" fill="rgb(0,0,0)" stroke="none" stroke-width="1"/></g><circle id="eRZTFnrAU4m58" r="15.830000" transform="matrix(1 0 0 1 426.32999999999998 229.13999999999999)" fill="rgb(253,194,204)" stroke="none" stroke-width="1"/><path id="eRZTFnrAU4m59" d="M533.850000,307.130000C532.540000,310.410000,528.630000,311.650000,525.200000,312.500000C520.300000,313.700000,515.020000,314.880000,510.330000,313.020000C509.722377,312.678966,509.021237,312.542243,508.330000,312.630000C507.772845,312.853411,507.307636,313.258706,507.010000,313.780000C501.840000,321.140000,502.680000,330.950000,501.340000,339.850000C500.920000,342.620000,500.210000,345.480000,498.340000,347.550000C494.700000,351.550000,487.830000,351.400000,484.480000,355.650000C482.270000,358.450000,482.250000,362.340000,482.270000,365.910000Q482.270000,371.620000,482.170000,377.340000C482.110000,379.840000,481.990000,382.430000,480.860000,384.650000C478.940000,388.410000,474.660000,390.200000,470.710000,391.650000C468.250000,392.570000,465.710000,393.500000,463.070000,393.250000C460.430000,393,457.790000,391.250000,457.450000,388.610000C456.980000,385.030000,460.670000,382.530000,463.210000,379.950000C467.270000,375.840000,468.940000,369.860000,469.090000,364.080000C469.232785,361.745593,468.892354,359.406833,468.090000,357.210000C467.160000,354.940000,465.500000,353.030000,464.500000,350.790000C461.420000,343.890000,465.220000,335.910000,469.770000,329.870000C474.320000,323.830000,479.910000,317.940000,480.880000,310.450000C480.964582,308.829150,481.195522,307.219264,481.570000,305.640000C482.270000,303.460000,483.930000,297.440000,485.760000,296.060000C488.689660,293.853053,492.129445,292.422103,495.760000,291.900000C498.570000,291.490000,501.440000,291.640000,504.230000,291.100000C507.490000,290.470000,510.520000,288.920000,513.780000,288.340000C520.830000,287.090000,528.480000,295.280000,531.570000,301.740000C532.420000,303.720000,534.650000,305.120000,533.850000,307.130000Z" transform="matrix(1 0 0 1 -84.98999999999999 -85.06999999999999)" opacity="0.1" fill="rgb(0,0,0)" stroke="none" stroke-width="1"/><path id="eRZTFnrAU4m60" d="M533.850000,306.520000C532.540000,309.800000,528.630000,311.040000,525.200000,311.890000C520.300000,313.090000,515.020000,314.270000,510.330000,312.410000C509.722377,312.068966,509.021237,311.932243,508.330000,312.020000C507.772845,312.243411,507.307636,312.648706,507.010000,313.170000C501.840000,320.530000,502.680000,330.340000,501.340000,339.240000C500.920000,342.010000,500.210000,344.870000,498.340000,346.940000C494.700000,350.940000,487.830000,350.790000,484.480000,355.040000C482.270000,357.840000,482.250000,361.730000,482.270000,365.300000Q482.270000,371.010000,482.170000,376.730000C482.110000,379.230000,481.990000,381.820000,480.860000,384.040000C478.940000,387.800000,474.660000,389.590000,470.710000,391.040000C468.250000,391.960000,465.710000,392.890000,463.070000,392.640000C460.430000,392.390000,457.790000,390.640000,457.450000,388C456.980000,384.420000,460.670000,381.920000,463.210000,379.340000C467.270000,375.230000,468.940000,369.250000,469.090000,363.470000C469.232785,361.135593,468.892354,358.796833,468.090000,356.600000C467.160000,354.330000,465.500000,352.420000,464.500000,350.180000C461.420000,343.280000,465.220000,335.300000,469.770000,329.260000C474.320000,323.220000,479.910000,317.330000,480.880000,309.840000C480.964582,308.219150,481.195522,306.609264,481.570000,305.030000C482.270000,302.850000,483.930000,296.830000,485.760000,295.450000C488.689660,293.243053,492.129445,291.812103,495.760000,291.290000C498.570000,290.880000,501.440000,291.030000,504.230000,290.490000C507.490000,289.860000,510.520000,288.310000,513.780000,287.730000C520.830000,286.480000,528.480000,294.670000,531.570000,301.130000C532.420000,303.110000,534.650000,304.510000,533.850000,306.520000Z" transform="matrix(1 0 0 1 -84.98999999999999 -85.06999999999999)" fill="rgb(245,105,188)" stroke="none" stroke-width="1"/><path id="eRZTFnrAU4m61" d="M585,276.090000L848.170000,276.090000L848.170000,539.240000L585,539.240000Z" transform="matrix(1 0 0 1 -84.98999999999999 -85.06999999999999)" fill="rgb(247,223,30)" stroke="none" stroke-width="1"/><path id="eRZTFnrAU4m62" d="M654.210000,496L674.350000,483.810000C678.240000,490.700000,681.770000,496.530000,690.250000,496.530000C698.380000,496.530000,703.500000,493.350000,703.500000,480.990000L703.500000,396.900000L728.230000,396.900000L728.230000,481.330000C728.230000,506.940000,713.230000,518.600000,691.310000,518.600000C671.530000,518.600000,660.050000,508.350000,654.220000,495.990000M741.660000,493.340000L761.790000,481.680000C767.090000,490.340000,773.980000,496.680000,786.170000,496.680000C796.420000,496.680000,802.950000,491.560000,802.950000,484.490000C802.950000,476.010000,796.240000,473.010000,784.950000,468.060000L778.770000,465.410000C760.930000,457.820000,749.090000,448.280000,749.090000,428.140000C749.090000,409.590000,763.220000,395.460000,785.300000,395.460000C801.020000,395.460000,812.300000,400.940000,820.450000,415.240000L801.200000,427.610000C796.960000,420.010000,792.370000,417.010000,785.300000,417.010000C778.060000,417.010000,773.460000,421.600000,773.460000,427.610000C773.460000,435.030000,778.050000,438.030000,788.650000,442.610000L794.830000,445.260000C815.830000,454.260000,827.690000,463.450000,827.690000,484.120000C827.690000,506.380000,810.200000,518.570000,786.690000,518.570000C763.690000,518.570000,748.890000,507.570000,741.690000,493.310000" transform="matrix(1 0 0 1 -84.98999999999999 -85.06999999999999)" fill="rgb(249,4,125)" stroke="none" stroke-width="1"/><path id="eRZTFnrAU4m63" d="M963.610000,685.280000C963.610000,685.280000,953.340000,686,947,675C945.760885,672.785153,944.296458,670.704125,942.630000,668.790000C940.583262,665.433922,939.519589,661.570746,939.560000,657.640000C939.910000,649.490000,931.410000,604.850000,931.410000,604.850000C931.410000,604.850000,932.470000,587.850000,923.970000,577.220000C918.370000,570.220000,910.320000,550.220000,905.470000,537.300000C905.795332,537.590050,906.186724,537.796046,906.610000,537.900000L906.410000,536.790000L906.610000,536.790000L904.100000,523C900.445619,518.799282,897.365354,514.131805,894.940000,509.120000L895.510000,509L903.030000,507.420000C903.030000,507.420000,915.250000,490.050000,916.030000,481.510000L917.030000,481.510000L918.440000,481.510000C929.751319,481.448136,941.056781,482.039119,952.300000,483.280000L952.300000,483.280000C952.300000,483.230000,952.220000,483.010000,952.120000,482.660000L952.120000,482.660000C951.643975,480.941470,951.276582,479.194684,951.020000,477.430000L951.720000,477.430000L958.720000,476.970000C958.720000,476.970000,982.810000,450.050000,973.950000,445.090000C965.090000,440.130000,955.880000,467.410000,955.880000,467.410000L952.880000,467.950000L952.070000,468.100000C952.150000,467.980000,952.230000,467.870000,952.320000,467.760000C952.410000,467.650000,913,466,906.930000,456.420000C906.930000,456.420000,889.570000,442.600000,888.860000,433.420000C888.599576,429.537290,886.191327,426.125603,882.620000,424.580000C880.475216,423.556237,878.099880,423.111508,875.730000,423.290000L867.600000,423.850000L868.170000,424.850000L867.940000,424.850000C867.429933,423.681306,867.002223,422.478372,866.660000,421.250000L866.830000,421.250000C866.770000,421,866.720000,420.750000,866.670000,420.500000C871.703808,419.312882,876.042464,416.138156,878.697005,411.699476C881.351547,407.260796,882.095758,401.936421,880.760000,396.940000C881.555411,397.042080,882.361927,397.018459,883.150000,396.870000C886.150000,396.260000,888.260000,393.220000,888.340000,390.180000C888.340000,389.980000,888.340000,389.780000,888.340000,389.590000C888.340000,389.590000,888.340000,389.510000,888.340000,389.470000C888.279347,386.376404,886.828485,383.474680,884.390000,381.570000C882.770000,380.220000,880.830000,379.260000,879.390000,377.760000C877.640000,375.970000,876.680000,373.570000,875.320000,371.460000C873.041893,367.969734,869.663054,365.340575,865.720000,363.990000C862.790000,362.990000,859.190000,362.890000,856.940000,364.990000C855.780000,366.080000,855.110000,367.660000,853.810000,368.580000C851.940000,369.920000,849.400000,369.520000,847.110000,369.790000C842.898825,370.437807,839.287441,373.141658,837.480000,377C836.357351,379.379046,835.815823,381.990720,835.900000,384.620000C835.875257,386.423818,836.090476,388.222917,836.540000,389.970000C836.980000,391.710000,837.630000,393.390000,838.110000,395.130000C839.110000,398.730000,839.340000,402.520000,840.490000,406.070000C841.262646,408.704838,842.805367,411.048520,844.920000,412.800000L844.580000,414.260000C844.360000,414.260000,838.840000,415.490000,835.030000,423.820000C832.030000,430.390000,821.820000,437.170000,817.330000,439.910000C815.638472,440.945096,814.434700,442.617403,813.990000,444.550000C813.558768,446.482464,813.367325,448.460706,813.420000,450.440000C813.340000,454.710000,814.230000,460.620000,817.660000,468.110000C825.450000,485.110000,831.120000,492.550000,831.120000,492.550000C831.120000,492.550000,831.550000,497.760000,831.580000,503.250000C831.580000,507.340000,831.280000,511.410000,830.410000,513.450000C829.670000,515.170000,829.410000,519.560000,829.470000,524.580000C829.470000,534.200000,830.410000,546.750000,830.410000,546.750000C830.410000,546.750000,833.120000,547.270000,837.310000,547.880000L839.920000,593.800000C840.248105,599.360989,838.462090,604.840483,834.920000,609.140000C833.089181,611.401343,830.975180,613.417878,828.630000,615.140000C821.190000,620.450000,805.250000,676.430000,805.250000,676.430000C805.250000,676.430000,806.030000,676.430000,807.310000,676.580000L802.410000,690.250000C802.410000,690.250000,821.990000,705.250000,833.900000,701.150000C835.190045,700.729637,836.544114,700.540067,837.900000,700.590000C840.250000,700.590000,845.280000,698.730000,842.480000,696.280000C837.073179,691.300714,831.973790,685.997616,827.210000,680.400000C827.593170,680.587438,827.960975,680.804777,828.310000,681.050000L828.310000,680.940000L828.480000,681.050000C828.480000,681.050000,828.480000,680.500000,828.610000,679.600000L828.440000,679.540000C828.800000,675.860000,829.940000,666.540000,832.200000,665.460000C835.030000,664.040000,855.940000,622.590000,855.940000,622.590000L876.840000,568.740000C876.840000,568.740000,893.490000,597.440000,907.660000,602.390000L907.660000,614.390000C907.660000,614.390000,915.450000,649.820000,918.290000,653.710000C921.130000,657.600000,918.290000,673.190000,918.290000,673.190000C918.850244,673.831331,919.492419,674.396177,920.200000,674.870000L917.930000,687.710000C917.930000,687.710000,934.230000,687,961.860000,695.500000C961.840000,695.550000,972.470000,690.950000,963.610000,685.280000ZM898.430000,500L894.980000,500.860000L894.300000,501.030000C894.230000,500.600000,894.180000,500.350000,894.180000,500.350000C893.388418,500.707278,892.537263,500.914132,891.670000,500.960000C890.447147,497.086443,889.741047,493.068393,889.570000,489.010000C888.409227,484.152774,887.702850,479.198092,887.460000,474.210000C887.460000,471.630000,887.890000,469.380000,888.860000,468.110000L890.010000,468.200000L890.810000,468.960000L890.870000,469.010000L891.280000,469.380000L891.280000,469.380000L891.710000,469.760000L891.780000,469.820000L892.240000,470.230000L892.320000,470.300000L892.790000,470.700000L892.790000,470.700000L893.320000,471.140000L893.440000,471.240000L894,471.690000L894,471.690000L894.550000,472.130000L894.680000,472.230000L895.290000,472.690000L895.420000,472.780000L896,473.210000L896.100000,473.280000L896.760000,473.750000L896.920000,473.860000L897.620000,474.340000L897.680000,474.340000L898.360000,474.790000L898.520000,474.900000L899.250000,475.370000L899.410000,475.470000L900.090000,475.890000L900.220000,475.970000L901,476.430000L901.190000,476.540000L902,476.990000L902.060000,476.990000L902.850000,477.410000L903.040000,477.510000L903.880000,477.930000L904.050000,478.010000L904.830000,478.370000L904.980000,478.440000L905.860000,478.820000L906.070000,478.910000L906.980000,479.280000L906.980000,479.280000C901.330000,485.500000,898.430000,500,898.430000,500Z" transform="matrix(1 0 0 1 -84.98999999999999 -85.06999999999999)" fill="url(#eRZTFnrAU4m63-fill)" stroke="none" stroke-width="1"/><path id="eRZTFnrAU4m64" d="M811.050000,668.160000L804.480000,686.490000C804.480000,686.490000,822.480000,700.290000,834.180000,697.430000C835.942719,696.991306,837.738937,696.700299,839.550000,696.560000C841.970000,696.380000,846.140000,694.610000,843.550000,692.370000C835.250000,685.110000,824.180000,671.620000,824.180000,671.620000Z" transform="matrix(1 0 0 1 -84.98999999999999 -85.06999999999999)" fill="rgb(79,77,89)" stroke="none" stroke-width="1"/><path id="eRZTFnrAU4m65" d="M920.340000,666.430000L917.230000,684.070000C917.230000,684.070000,933.140000,683.380000,960.120000,691.680000C960.120000,691.680000,970.500000,687.180000,961.850000,681.680000C961.850000,681.680000,951.850000,682.370000,945.600000,671.680000C939.350000,660.990000,935.600000,662.340000,935.600000,662.340000Z" transform="matrix(1 0 0 1 -84.98999999999999 -85.06999999999999)" fill="rgb(79,77,89)" stroke="none" stroke-width="1"/><path id="eRZTFnrAU4m66" d="M838,538.470000L841,592.150000C841.328636,597.869883,839.433177,603.495346,835.710000,607.850000C834.027585,609.849494,832.110443,611.639050,830,613.180000C822.740000,618.370000,807.170000,673.010000,807.170000,673.010000C807.170000,673.010000,824.810000,674.010000,829.650000,677.510000C829.650000,677.510000,830.650000,663.680000,833.450000,662.290000C836.250000,660.900000,856.620000,620.440000,856.620000,620.440000L877.030000,567.870000C877.030000,567.870000,893.280000,595.870000,907.120000,600.730000L907.120000,612.490000C907.120000,612.490000,914.730000,647.080000,917.500000,650.880000C920.270000,654.680000,917.500000,669.880000,917.500000,669.880000C917.500000,669.880000,925.500000,679.880000,943.780000,669.190000C943.780000,669.190000,937.900000,662.620000,938.250000,654.660000C938.600000,646.700000,930.250000,603.130000,930.250000,603.130000C930.250000,603.130000,931.250000,586.530000,922.990000,576.130000C914.730000,565.730000,901,526,901,526L891.480000,505.520000Z" transform="matrix(1 0 0 1 -84.98999999999999 -85.06999999999999)" fill="rgb(84,80,111)" stroke="none" stroke-width="1"/><g id="eRZTFnrAU4m67" opacity="0.1"><path id="eRZTFnrAU4m68" d="M810.530000,673C810.530000,673,826.090000,618.360000,833.360000,613.170000C835.590052,611.535498,837.605847,609.627213,839.360000,607.490000C842.909185,603.194382,844.696135,597.712020,844.360000,592.150000L841.310000,538.460000L892.310000,507.020000L891.620000,505.530000L838.200000,538.470000L841.250000,592.160000C841.586135,597.722020,839.799185,603.204382,836.250000,607.500000C834.495847,609.637213,832.480052,611.545498,830.250000,613.180000C823,618.360000,807.420000,673,807.420000,673C807.420000,673,825.060000,674,829.900000,677.500000C829.900000,677.500000,829.900000,676.960000,830.030000,676.090000C823.220000,673.750000,810.530000,673,810.530000,673Z" transform="matrix(1 0 0 1 -84.98999999999999 -85.06999999999999)" fill="rgb(0,0,0)" stroke="none" stroke-width="1"/><path id="eRZTFnrAU4m69" d="M920.860000,669.890000C920.860000,669.890000,923.630000,654.670000,920.860000,650.890000C918.090000,647.110000,910.480000,612.500000,910.480000,612.500000L910.480000,600.720000C896.650000,595.880000,880.390000,567.860000,880.390000,567.860000L879.190000,571C883.880000,578.440000,896.390000,596.900000,907.380000,600.740000L907.380000,612.500000C907.380000,612.500000,914.990000,647.090000,917.760000,650.890000C920.530000,654.690000,917.760000,669.890000,917.760000,669.890000C917.760000,669.890000,921.620000,674.750000,930.140000,674.090000C923.770000,673.560000,920.860000,669.890000,920.860000,669.890000Z" transform="matrix(1 0 0 1 -84.98999999999999 -85.06999999999999)" fill="rgb(0,0,0)" stroke="none" stroke-width="1"/></g><path id="eRZTFnrAU4m70" d="M957,478.290000L950.210000,478.740000L946.630000,478.980000L946.630000,470.330000L951.330000,469.480000L954.240000,468.950000C954.240000,468.950000,963.240000,442.320000,971.880000,447.160000C980.520000,452,957,478.290000,957,478.290000Z" transform="matrix(1 0 0 1 -84.98999999999999 -85.06999999999999)" fill="rgb(113,75,79)" stroke="none" stroke-width="1"/><path id="eRZTFnrAU4m71" d="M848.060000,407C848.060000,407,843.560000,424.290000,842.180000,435C840.800000,445.710000,874.340000,437.080000,874.340000,437.080000C874.340000,437.080000,861.540000,421.520000,868.810000,413.220000Z" transform="matrix(1 0 0 1 -84.98999999999999 -85.06999999999999)" fill="rgb(113,75,79)" stroke="none" stroke-width="1"/><path id="eRZTFnrAU4m72" d="M884.370000,479L885.060000,485.570000L874.340000,484.880000L863.620000,475.540000L852.900000,445.440000L846,434.710000L840.810000,428.140000L842.890000,420.140000C842.890000,420.140000,843.840000,420.970000,845.440000,422.190000C850.710000,426.190000,863.060000,434.600000,872.090000,432.280000C872.507433,432.174723,872.918171,432.044489,873.320000,431.890000L886.810000,455.060000Z" transform="matrix(1 0 0 1 -84.98999999999999 -85.06999999999999)" fill="rgb(230,230,240)" stroke="none" stroke-width="1"/><path id="eRZTFnrAU4m73" d="M845.640000,418.110000C845.640000,418.110000,840.110000,419.110000,836.300000,427.450000C833.380000,433.830000,823.500000,440.450000,819.090000,443.120000C817.390344,444.157733,816.182206,445.838307,815.740000,447.780000C814.850000,451.720000,814.510000,459.070000,819.350000,469.640000C826.960000,486.240000,832.490000,493.500000,832.490000,493.500000C832.490000,493.500000,833.870000,510.100000,831.800000,514.940000C829.730000,519.780000,831.800000,546.410000,831.800000,546.410000C831.800000,546.410000,868.110000,553.330000,880.220000,546.410000C892.330000,539.490000,890.600000,512.860000,890.600000,512.860000C890.600000,512.860000,902.010000,537.070000,906.160000,537.760000L903.740000,524.270000C903.740000,524.270000,890.250000,509.740000,889.560000,491.070000C889.560000,491.070000,885.410000,474.120000,888.870000,469.630000C888.870000,469.630000,947.320000,474.470000,950.780000,470.320000C950.780000,470.320000,912.390000,468.590000,906.510000,459.250000C906.510000,459.250000,889.560000,445.760000,888.870000,436.770000C888.665567,433.338690,886.702820,430.256534,883.680000,428.620000C881.327621,427.281751,878.628175,426.679165,875.930000,426.890000L868.120000,427.430000C868.120000,427.430000,881.610000,451.290000,880.920000,454.430000C880.230000,457.570000,881.610000,482.790000,881.610000,482.790000C881.610000,482.790000,866,449.240000,859.130000,445.440000C852.260000,441.640000,844.250000,426,844.250000,426L845.630000,418.100000" transform="matrix(1 0 0 1 -84.98999999999999 -85.06999999999999)" opacity="0.1" fill="rgb(0,0,0)" stroke="none" stroke-width="1"/><path id="eRZTFnrAU4m74" d="M884.370000,479L885.060000,485.570000L874.340000,484.880000L863.620000,475.540000L852.900000,445.440000L846,434.710000L840.810000,428.140000L842.890000,420.140000C842.890000,420.140000,843.840000,420.970000,845.440000,422.190000L844.960000,424.920000C844.960000,424.920000,852.960000,440.540000,859.830000,444.350000C866.700000,448.160000,882.310000,481.700000,882.310000,481.700000C882.310000,481.700000,880.930000,456.450000,881.620000,453.340000C882.090000,451.230000,876.030000,439.570000,872.090000,432.280000C872.507433,432.174723,872.918171,432.044489,873.320000,431.890000L886.810000,455.060000Z" transform="matrix(1 0 0 1 -84.98999999999999 -85.06999999999999)" opacity="0.1" fill="rgb(0,0,0)" stroke="none" stroke-width="1"/><path id="eRZTFnrAU4m75" d="M950.210000,478.740000L946.630000,478.980000L946.630000,470.330000L951.330000,469.480000C949.690000,471.650000,949.750000,475.490000,950.210000,478.740000Z" transform="matrix(1 0 0 1 -84.98999999999999 -85.06999999999999)" opacity="0.1" fill="rgb(0,0,0)" stroke="none" stroke-width="1"/><path id="eRZTFnrAU4m76" d="M845.640000,417.080000C845.640000,417.080000,840.110000,418.080000,836.300000,426.420000C833.380000,432.800000,823.500000,439.420000,819.090000,442.090000C817.390344,443.127733,816.182206,444.808307,815.740000,446.750000C814.850000,450.690000,814.510000,458.040000,819.350000,468.610000C826.960000,485.210000,832.490000,492.470000,832.490000,492.470000C832.490000,492.470000,833.870000,509.070000,831.800000,513.910000C829.730000,518.750000,831.800000,545.380000,831.800000,545.380000C831.800000,545.380000,868.110000,552.300000,880.220000,545.380000C892.330000,538.460000,890.600000,511.830000,890.600000,511.830000C890.600000,511.830000,902,536,906.160000,536.740000L903.740000,523.250000C903.740000,523.250000,890.250000,508.720000,889.560000,490.050000C889.560000,490.050000,885.410000,473.100000,888.870000,468.610000C888.870000,468.610000,902.360000,483.140000,917.580000,482.790000C928.670831,482.723244,939.756174,483.300884,950.780000,484.520000C961.803826,485.739116,947.320000,473.450000,950.780000,469.300000C950.780000,469.300000,912.390000,467.570000,906.510000,458.230000C906.510000,458.230000,889.560000,444.740000,888.870000,435.750000C888.665567,432.318690,886.702820,429.236534,883.680000,427.600000C881.327621,426.261751,878.628175,425.659165,875.930000,425.870000L868.120000,426.410000C868.120000,426.410000,881.610000,450.270000,880.920000,453.410000C880.230000,456.550000,881.610000,481.770000,881.610000,481.770000C881.610000,481.770000,866,448.200000,859.130000,444.400000C852.260000,440.600000,844.250000,425,844.250000,425L845.630000,417.100000" transform="matrix(1 0 0 1 -84.98999999999999 -85.06999999999999)" fill="rgb(204,26,214)" stroke="none" stroke-width="1"/><path id="eRZTFnrAU4m77" d="M838,453.390000C838,453.390000,846.300000,481.390000,851.140000,484.860000C855.980000,488.330000,885.380000,505.960000,894.030000,501.810000C894.030000,501.810000,896.110000,512.190000,893.030000,514.610000C893.030000,514.610000,860.780000,513.350000,860.520000,513.230000C860.520000,513.230000,839.420000,510.460000,835.960000,500.090000C832.500000,489.720000,828.350000,472.090000,828.350000,472.090000Z" transform="matrix(1 0 0 1 -84.98999999999999 -85.06999999999999)" opacity="0.1" fill="rgb(0,0,0)" stroke="none" stroke-width="1"/><ellipse id="eRZTFnrAU4m78" rx="1.210000" ry="1.730000" transform="matrix(1 0 0 1 797.30999999999995 398.24000000000001)" fill="rgb(186,120,85)" stroke="none" stroke-width="1"/><ellipse id="eRZTFnrAU4m79" rx="1.210000" ry="1.730000" transform="matrix(1 0 0 1 800.75999999999999 410.33999999999997)" fill="rgb(186,120,85)" stroke="none" stroke-width="1"/><g id="eRZTFnrAU4m80" opacity="0.1"><path id="eRZTFnrAU4m81" d="M834.230000,545C834.230000,545,832.150000,518.370000,834.230000,513.530000C836.310000,508.690000,834.920000,492.090000,834.920000,492.090000C834.920000,492.090000,829.390000,484.830000,821.780000,468.230000C816.930000,457.660000,817.280000,450.310000,818.170000,446.370000C818.612206,444.428307,819.820344,442.747733,821.520000,441.710000C825.930000,439.010000,835.800000,432.420000,838.730000,426.040000C840.880000,421.360000,843.570000,418.990000,845.510000,417.810000L845.640000,417.050000C845.640000,417.050000,840.110000,418.050000,836.300000,426.390000C833.380000,432.770000,823.500000,439.390000,819.090000,442.060000C817.390344,443.097733,816.182206,444.778307,815.740000,446.720000C814.850000,450.660000,814.510000,458.010000,819.350000,468.580000C826.960000,485.180000,832.490000,492.440000,832.490000,492.440000C832.490000,492.440000,833.870000,509.040000,831.800000,513.880000C829.730000,518.720000,831.800000,545.350000,831.800000,545.350000C831.800000,545.350000,857.740000,550.290000,873.080000,547.640000C857.590000,549.490000,834.230000,545,834.230000,545Z" transform="matrix(1 0 0 1 -84.98999999999999 -85.06999999999999)" fill="rgb(0,0,0)" stroke="none" stroke-width="1"/><path id="eRZTFnrAU4m82" d="M880.910000,453.390000C880.440000,455.520000,880.910000,468.050000,881.300000,475.730000C882.970000,479.140000,884.020000,481.410000,884.020000,481.410000C884.020000,481.410000,882.640000,456.160000,883.330000,453.050000C883.990000,450.050000,871.840000,428.390000,870.630000,426.250000L868.110000,426.420000C868.110000,426.420000,881.610000,450.280000,880.910000,453.390000Z" transform="matrix(1 0 0 1 -84.98999999999999 -85.06999999999999)" fill="rgb(0,0,0)" stroke="none" stroke-width="1"/><path id="eRZTFnrAU4m83" d="M920,482.440000C904.780000,482.790000,891.290000,468.260000,891.290000,468.260000C890.885504,468.823381,890.590391,469.457704,890.420000,470.130000C894.420000,473.850000,905.420000,483.060000,917.580000,482.780000C928.670831,482.713244,939.756174,483.290884,950.780000,484.510000C961.803826,485.729116,950.710000,484.280000,950.600000,483.890000C940.434815,482.839134,930.219006,482.355052,920,482.440000Z" transform="matrix(1 0 0 1 -84.98999999999999 -85.06999999999999)" fill="rgb(0,0,0)" stroke="none" stroke-width="1"/><path id="eRZTFnrAU4m84" d="M893,511.490000C893,511.490000,893.140000,513.650000,893.060000,516.890000C896.660000,524.030000,903.210000,536.240000,906.140000,536.730000L905.630000,533.890000C900.600000,527.570000,893,511.490000,893,511.490000Z" transform="matrix(1 0 0 1 -84.98999999999999 -85.06999999999999)" fill="rgb(0,0,0)" stroke="none" stroke-width="1"/></g><path id="eRZTFnrAU4m85" d="M902.700000,508L895.350000,509.550000L889.550000,510.770000L892.660000,502.120000L894.830000,501.580000L898.200000,500.740000C898.200000,500.740000,903.040000,476.530000,912.730000,478.260000C922.420000,479.990000,902.700000,508,902.700000,508Z" transform="matrix(1 0 0 1 -84.98999999999999 -85.06999999999999)" fill="rgb(113,75,79)" stroke="none" stroke-width="1"/><path id="eRZTFnrAU4m86" d="M895.360000,509.580000L889.560000,510.800000L892.670000,502.150000L894.840000,501.610000C895.320944,504.237620,895.495444,506.912164,895.360000,509.580000Z" transform="matrix(1 0 0 1 -84.98999999999999 -85.06999999999999)" opacity="0.1" fill="rgb(0,0,0)" stroke="none" stroke-width="1"/><path id="eRZTFnrAU4m87" d="M838,452.700000C838,452.700000,846.300000,480.700000,851.140000,484.170000C855.980000,487.640000,885.380000,505.270000,894.030000,501.120000C894.030000,501.120000,896.110000,511.500000,893.030000,513.920000C893.030000,513.920000,860.780000,512.660000,860.520000,512.540000C860.520000,512.540000,839.420000,509.770000,835.960000,499.400000C832.500000,489.030000,828.350000,471.400000,828.350000,471.400000Z" transform="matrix(1 0 0 1 -84.98999999999999 -85.06999999999999)" fill="rgb(204,26,214)" stroke="none" stroke-width="1"/><path id="eRZTFnrAU4m88" d="M848.400000,407.740000C848.400000,407.740000,847.700000,410.450000,846.760000,414.390000C850.696160,421.847796,859.142914,425.741254,867.370000,423.890000C866.540000,420.340000,866.720000,416.750000,869.150000,413.970000Z" transform="matrix(1 0 0 1 -84.98999999999999 -85.06999999999999)" opacity="0.1" fill="rgb(0,0,0)" stroke="none" stroke-width="1"/><circle id="eRZTFnrAU4m89" r="18.680000" transform="matrix(1 0 0 1 777.94000000000005 319.89999999999998)" fill="rgb(113,75,79)" stroke="none" stroke-width="1"/><path id="eRZTFnrAU4m90" d="M879.150000,399.830000C880.503011,400.207902,881.920464,400.296493,883.310000,400.090000C886.267091,399.289692,888.333273,396.623255,888.370000,393.560000C888.316702,390.540500,886.901695,387.706811,884.520000,385.850000C882.940000,384.530000,881.050000,383.600000,879.600000,382.130000C877.890000,380.380000,876.950000,378.040000,875.600000,375.980000C873.376415,372.573636,870.078507,370.007814,866.230000,368.690000C863.370000,367.690000,859.860000,367.610000,857.660000,369.690000C856.530000,370.760000,855.870000,372.290000,854.610000,373.200000C852.780000,374.500000,850.300000,374.120000,848.070000,374.380000C843.967061,375.003776,840.443300,377.627853,838.670000,381.380000C836.963572,385.147826,836.637872,389.396084,837.750000,393.380000C838.180000,395.080000,838.820000,396.720000,839.280000,398.380000C840.280000,401.900000,840.480000,405.590000,841.600000,409.060000C842.720000,412.530000,845.030000,415.930000,848.530000,416.970000C848.254062,413.075192,849.023953,409.177401,850.760000,405.680000C851.046070,404.915195,851.610369,404.286608,852.340000,403.920000C852.963226,403.759982,853.616774,403.759982,854.240000,403.920000C858.626203,404.568841,863.101211,403.663226,866.890000,401.360000C868.220000,400.560000,870.290000,397.800000,871.700000,397.530000C873.520000,397.220000,877.250000,399.410000,879.150000,399.830000Z" transform="matrix(1 0 0 1 -84.98999999999999 -85.06999999999999)" opacity="0.1" fill="rgb(0,0,0)" stroke="none" stroke-width="1"/><path id="eRZTFnrAU4m91" d="M879.150000,399.140000C880.503011,399.517902,881.920464,399.606493,883.310000,399.400000C886.267091,398.599692,888.333273,395.933255,888.370000,392.870000C888.316702,389.850500,886.901695,387.016811,884.520000,385.160000C882.940000,383.840000,881.050000,382.910000,879.600000,381.440000C877.890000,379.690000,876.950000,377.350000,875.600000,375.290000C873.376415,371.883636,870.078507,369.317814,866.230000,368C863.370000,367,859.860000,366.920000,857.660000,369C856.530000,370.070000,855.870000,371.600000,854.610000,372.510000C852.780000,373.810000,850.300000,373.430000,848.070000,373.690000C843.967061,374.313776,840.443300,376.937853,838.670000,380.690000C836.963572,384.457826,836.637872,388.706084,837.750000,392.690000C838.180000,394.390000,838.820000,396.030000,839.280000,397.690000C840.280000,401.210000,840.480000,404.900000,841.600000,408.370000C842.720000,411.840000,845.030000,415.240000,848.530000,416.280000C848.262050,412.386719,849.038818,408.492523,850.780000,405C851.066070,404.235195,851.630369,403.606608,852.360000,403.240000C852.983226,403.079982,853.636774,403.079982,854.260000,403.240000C858.646203,403.888841,863.121211,402.983226,866.910000,400.680000C868.240000,399.880000,870.310000,397.120000,871.720000,396.850000C873.520000,396.530000,877.250000,398.720000,879.150000,399.140000Z" transform="matrix(1 0 0 1 -84.98999999999999 -85.06999999999999)" fill="rgb(80,63,67)" stroke="none" stroke-width="1"/><path id="eRZTFnrAU4m92" d="M1065.500000,337.490000L1050.260000,508.190000L981.760000,527.190000L913.450000,508.190000L898.230000,337.490000L1065.500000,337.490000Z" transform="matrix(1 0 0 1 -84.98999999999999 -85.06999999999999)" fill="rgb(228,77,38)" stroke="none" stroke-width="1"/><path id="eRZTFnrAU4m93" d="M981.860000,512.670000L1037.210000,497.330000L1050.210000,351.450000L981.860000,351.450000Z" transform="matrix(1 0 0 1 -84.98999999999999 -85.06999999999999)" fill="rgb(241,101,41)" stroke="none" stroke-width="1"/><path id="eRZTFnrAU4m94" d="M952.240000,393.330000L981.860000,393.330000L981.860000,372.390000L929.360000,372.390000L929.860000,378.010000L935.010000,435.710000L981.870000,435.710000L981.870000,414.770000L954.160000,414.770000ZM957,446.180000L936,446.180000L938.930000,479.060000L981.770000,491L981.870000,491L981.870000,469.150000L981.780000,469.150000L958.460000,462.850000L957,446.180000Z" transform="matrix(1 0 0 1 -84.98999999999999 -85.06999999999999)" fill="rgb(235,235,235)" stroke="none" stroke-width="1"/><path id="eRZTFnrAU4m95" d="M913.800000,291.090000L924.440000,291.090000L924.440000,301.600000L934.170000,301.600000L934.170000,291.090000L944.810000,291.090000L944.810000,322.930000L934.170000,322.930000L934.170000,312.270000L924.440000,312.270000L924.440000,322.930000L913.800000,322.930000L913.800000,291.090000ZM958.800000,301.650000L949.430000,301.650000L949.430000,291.090000L978.810000,291.090000L978.810000,301.650000L969.440000,301.650000L969.440000,322.930000L958.810000,322.930000L958.810000,301.650000L958.810000,301.650000ZM983.480000,291.090000L994.580000,291.090000L1001.410000,302.280000L1008.230000,291.090000L1019.330000,291.090000L1019.330000,322.930000L1008.730000,322.930000L1008.730000,307.150000L1001.410000,318.470000L1001.230000,318.470000L993.900000,307.150000L993.900000,322.930000L983.480000,322.930000ZM1024.620000,291.090000L1035.260000,291.090000L1035.260000,312.400000L1050.260000,312.400000L1050.260000,322.920000L1024.650000,322.920000L1024.650000,291.090000Z" transform="matrix(1 0 0 1 -84.98999999999999 -85.06999999999999)" fill="rgb(255,255,255)" stroke="none" stroke-width="1"/><path id="eRZTFnrAU4m96" d="M981.790000,435.710000L1007.570000,435.710000L1005.140000,462.870000L981.790000,469.170000L981.790000,491L1024.720000,479.100000L1025.030000,475.560000L1029.950000,420.430000L1030.460000,414.810000L981.790000,414.810000L981.790000,435.750000ZM981.790000,393.280000L981.790000,393.330000L1032.370000,393.330000L1032.790000,388.620000L1033.790000,378L1034.290000,372.380000L981.790000,372.380000L981.790000,393.270000Z" transform="matrix(1 0 0 1 -84.98999999999999 -85.06999999999999)" fill="rgb(255,255,255)" stroke="none" stroke-width="1"/><path id="eRZTFnrAU4m97" d="M451.720000,463.510000C449.770000,457.800000,446.960000,450.510000,444.720000,448.850000C444.585055,448.742163,444.437261,448.651471,444.280000,448.580000L444,448.580000L444,441.530000L438.740000,442.370000C437.895833,439.821838,437.257124,437.210154,436.830000,434.560000C437.866370,435.596748,439.424601,435.908395,440.780000,435.350000C440.690000,435.210000,440.620000,435.060000,440.540000,434.910000L440.780000,434.810000C439.952045,433.349012,439.514642,431.699278,439.510000,430.020000C439.553642,428.487800,439.799090,426.968040,440.240000,425.500000C441.180000,422.250000,442.770000,419.210000,443.660000,415.950000C444.228667,413.844912,444.497979,411.670215,444.460000,409.490000C444.486967,405.796158,443.644251,402.147814,442,398.840000C441.592037,397.887744,440.952689,397.052466,440.140000,396.410000C439.400092,396.000080,438.639030,395.629563,437.860000,395.300000C436.556046,394.421478,435.432463,393.301290,434.550000,392C430.814461,387.451837,425.813411,384.114324,420.180000,382.410000C418.713273,381.865380,417.123701,381.740707,415.590000,382.050000C412.060000,383.050000,410.770000,387.380000,407.910000,389.670000C405.380000,391.670000,401.910000,391.900000,398.750000,392.580000C395.505962,393.131806,392.519935,394.696582,390.220000,397.050000C388.724606,398.759455,387.909612,400.958872,387.930000,403.230000C387.754915,405.384964,388.713250,407.475877,390.460000,408.750000C392.439334,410.051503,394.896876,410.399961,397.160000,409.700000C395.394765,415.797431,396.252583,422.354807,399.526876,427.792980C402.801169,433.231154,408.195208,437.057297,414.410000,438.350000L415.030000,439.450000L415.030000,439.450000C416.921245,442.977197,418.356096,446.730659,419.300000,450.620000C414.460000,453.370000,409.170000,455.940000,405.980000,456.180000C405.853420,457.427106,405.622614,458.661420,405.290000,459.870000C404.544686,462.905006,403.111035,465.727827,401.100000,468.120000C396.760000,473,377.230000,509.900000,377.230000,509.900000C377.230000,509.900000,376.610000,511.370000,375.610000,513.900000C363.480000,515.390000,343.690000,517.540000,338.160000,516.430000L316.460000,495.810000C316.460000,495.810000,309.460000,501.160000,310.060000,507.660000L306.150000,503.940000C306.150000,503.940000,285.530000,519.670000,318.090000,529.940000L367.630000,535.690000C362.910000,549.930000,358.510000,566.500000,359.870000,575.520000L360.280000,575.520000C361.227540,575.518356,362.173590,575.444812,363.110000,575.300000L363.020000,576.900000L358.250000,662.330000C358.250000,662.330000,357.160000,678.060000,371.810000,685.120000C371.810000,685.120000,389.720000,737.750000,382.660000,743.720000C382.660000,743.720000,383.500000,744.160000,384.910000,744.780000L370.180000,757.780000C370.180000,757.780000,359.330000,760.490000,353.360000,759.950000C351.187868,759.653718,349.139392,761.035148,348.600000,763.160000C348.600000,763.270000,348.600000,763.380000,348.540000,763.500000L348.540000,763.640000C348.540000,763.750000,348.540000,763.870000,348.540000,763.990000C348.540000,764.110000,348.540000,764.080000,348.540000,764.120000C348.540000,764.160000,348.540000,764.320000,348.540000,764.420000L348.540000,764.550000C348.540000,764.670000,348.540000,764.780000,348.610000,764.900000L348.610000,765.030000Q348.660000,765.220000,348.730000,765.400000L348.730000,765.520000C348.780000,765.640000,348.840000,765.760000,348.900000,765.880000L348.900000,765.960000C348.970000,766.080000,349.040000,766.200000,349.120000,766.320000L349.190000,766.420000Q349.320000,766.610000,349.480000,766.800000L349.560000,766.900000C349.670000,767.030000,349.790000,767.150000,349.920000,767.280000L349.980000,767.280000L350.380000,767.620000L350.470000,767.690000L350.960000,768.040000L351.080000,768.120000L351.650000,768.450000L351.740000,768.450000L352.350000,768.750000L352.440000,768.750000L353.150000,769.040000L353.300000,769.100000L354.090000,769.360000L354.220000,769.360000L355.070000,769.580000L355.140000,769.580000L356.140000,769.770000L356.330000,769.770000L357.330000,769.920000L357.520000,769.920000L358.670000,770.030000C360.900000,770.200000,363.910000,770.260000,367.390000,770.250000L367.390000,770.250000C367.390000,770.250000,367.390000,770.340000,367.390000,770.380000C367.390000,770.420000,367.390000,770.580000,367.390000,770.680000L367.390000,770.810000C367.390000,770.930000,367.390000,771.040000,367.460000,771.160000L367.460000,771.290000Q367.510000,771.480000,367.580000,771.660000L367.580000,771.780000C367.630000,771.900000,367.690000,772.020000,367.750000,772.140000L367.750000,772.220000C367.820000,772.340000,367.890000,772.460000,367.970000,772.580000L368.040000,772.680000Q368.170000,772.870000,368.330000,773.060000L368.410000,773.160000C368.520000,773.290000,368.640000,773.410000,368.770000,773.540000L368.820000,773.540000L369.220000,773.880000L369.310000,773.950000L369.800000,774.300000L369.920000,774.380000L370.480000,774.710000L370.570000,774.710000L371.180000,775.010000L371.270000,775.010000L371.980000,775.300000L372.130000,775.360000L372.920000,775.620000L373.050000,775.620000L373.900000,775.840000L373.970000,775.840000L374.970000,776.030000L375.160000,776.030000L376.160000,776.180000L376.350000,776.180000L377.500000,776.290000C391.610000,777.380000,436.640000,774.120000,436.640000,774.120000L436.640000,773.990000L436.640000,773.990000L436.640000,773.830000L436.640000,773.830000C437.090000,771.730000,439.250000,759.520000,431.570000,750.490000C431.800000,750.250000,432.020000,750,432.230000,749.740000C432.230000,749.740000,426.230000,739.430000,429.520000,736.180000C432.810000,732.930000,413.630000,677,413.630000,677C413.630000,677,403.320000,660.720000,409.290000,642.270000C415.260000,623.820000,408.750000,603.750000,408.750000,603.750000C408.750000,603.750000,423,599.530000,423.260000,582C423.260000,581.470000,423.260000,580.920000,423.260000,580.370000C423.557970,580.413495,423.858893,580.433556,424.160000,580.430000C424.359745,580.444270,424.560255,580.444270,424.760000,580.430000C424.959745,580.415730,422.050000,570.660000,425.300000,563.610000C428.550000,556.560000,435.610000,563.070000,442.120000,534.310000C446.830000,513.500000,450.970000,489.570000,452.910000,477.920000C453.706879,473.091995,453.298090,468.141876,451.720000,463.510000ZM327.900000,524.510000L322.950000,519.810000C324.590000,520.490000,326.410000,521.150000,328.440000,521.810000L347.090000,524C338.770000,524.750000,331,525.170000,327.900000,524.540000Z" transform="matrix(1 0 0 1 -84.98999999999999 -85.06999999999999)" fill="url(#eRZTFnrAU4m97-fill)" stroke="none" stroke-width="1"/><path id="eRZTFnrAU4m98" d="M375.130000,521.770000C375.130000,521.770000,336.750000,527.100000,328.750000,525.500000L307.430000,505.240000C307.430000,505.240000,287.170000,520.700000,319.160000,530.830000L378.860000,537.760000Z" transform="matrix(1 0 0 1 -84.98999999999999 -85.06999999999999)" fill="rgb(253,194,204)" stroke="none" stroke-width="1"/><path id="eRZTFnrAU4m99" d="M375.130000,521.770000C375.130000,521.770000,336.750000,527.100000,328.750000,525.500000L307.430000,505.240000C307.430000,505.240000,287.170000,520.700000,319.160000,530.830000L378.860000,537.760000Z" transform="matrix(1 0 0 1 -84.98999999999999 -85.06999999999999)" opacity="0.05" fill="rgb(0,0,0)" stroke="none" stroke-width="1"/><path id="eRZTFnrAU4m100" d="M300,535.220000L217.060000,512.220000L198.580000,304.920000L401.670000,304.920000L383.170000,512.190000L300,535.220000Z" transform="matrix(1 0 0 1 -84.98999999999999 -85.06999999999999)" fill="rgb(38,77,228)" stroke="none" stroke-width="1"/><path id="eRZTFnrAU4m101" d="M367.330000,499L383.140000,321.880000L300.140000,321.880000L300.140000,517.590000L367.330000,499Z" transform="matrix(1 0 0 1 -84.98999999999999 -85.06999999999999)" fill="rgb(41,101,241)" stroke="none" stroke-width="1"/><path id="eRZTFnrAU4m102" d="M241,398.730000L243.280000,424.150000L300.180000,424.150000L300.180000,398.730000ZM236.420000,347.270000L238.730000,372.690000L300.170000,372.690000L300.170000,347.270000L236.370000,347.270000ZM300.170000,464.760000L300.060000,464.760000L271.740000,457.110000L269.930000,436.830000L244.360000,436.830000L247.920000,476.750000L300,491.240000L300.120000,491.240000Z" transform="matrix(1 0 0 1 -84.98999999999999 -85.06999999999999)" fill="rgb(235,235,235)" stroke="none" stroke-width="1"/><path id="eRZTFnrAU4m103" d="M246.380000,248.560000L277.170000,248.560000L277.170000,261.440000L259.250000,261.440000L259.250000,274.320000L277.170000,274.320000L277.170000,287.200000L246.380000,287.200000ZM283.380000,248.560000L314.170000,248.560000L314.170000,259.760000L296.210000,259.760000L296.210000,262L314.130000,262L314.130000,287.760000L283.330000,287.760000L283.330000,276L301.250000,276L301.250000,273.760000L283.330000,273.760000L283.330000,248.560000ZM320.380000,248.560000L351.170000,248.560000L351.170000,259.760000L333.160000,259.760000L333.160000,262L351.080000,262L351.080000,287.760000L320.280000,287.760000L320.280000,276L338.200000,276L338.200000,273.760000L320.280000,273.760000L320.280000,248.560000Z" transform="matrix(1 0 0 1 -84.98999999999999 -85.06999999999999)" fill="rgb(255,255,255)" stroke="none" stroke-width="1"/><path id="eRZTFnrAU4m104" d="M359.140000,398.730000L363.730000,347.270000L300,347.270000L300,372.690000L335.830000,372.690000L333.520000,398.690000L300,398.690000L300,424.110000L331.310000,424.110000L328.310000,457.110000L300,464.780000L300,491.230000L352.120000,476.780000L352.500000,472.480000L358.500000,405.540000L359.120000,398.710000Z" transform="matrix(1 0 0 1 -84.98999999999999 -85.06999999999999)" fill="rgb(255,255,255)" stroke="none" stroke-width="1"/><path id="eRZTFnrAU4m105" d="M389,738.190000L370.340000,754.710000C370.340000,754.710000,359.680000,757.380000,353.820000,756.840000C347.960000,756.300000,345.290000,765.900000,359.150000,766.970000C373.010000,768.040000,417.250000,764.840000,417.250000,764.840000C417.250000,764.840000,421.510000,747.780000,408.720000,738.190000Z" transform="matrix(1 0 0 1 -84.98999999999999 -85.06999999999999)" fill="rgb(71,70,90)" stroke="none" stroke-width="1"/><path id="eRZTFnrAU4m106" d="M389,738.190000L370.340000,754.710000C370.340000,754.710000,359.680000,757.380000,353.820000,756.840000C347.960000,756.300000,345.290000,765.900000,359.150000,766.970000C373.010000,768.040000,417.250000,764.840000,417.250000,764.840000C417.250000,764.840000,421.510000,747.780000,408.720000,738.190000Z" transform="matrix(1 0 0 1 -84.98999999999999 -85.06999999999999)" opacity="0.05" fill="rgb(0,0,0)" stroke="none" stroke-width="1"/><path id="eRZTFnrAU4m107" d="M417.910000,757.470000C417.878343,759.414082,417.653911,761.350228,417.240000,763.250000C416.826089,765.149772,373,766.450000,359.140000,765.380000C352.470000,764.870000,349.640000,762.380000,349.140000,760C348.530000,762.740000,350.950000,766.350000,359.140000,767C373,768.070000,417.240000,764.870000,417.240000,764.870000C417.761138,762.439409,417.986108,759.954666,417.910000,757.470000Z" transform="matrix(1 0 0 1 -84.98999999999999 -85.06999999999999)" opacity="0.3" fill="rgb(255,255,255)" stroke="none" stroke-width="1"/><path id="eRZTFnrAU4m108" d="M410.840000,436C410.840000,436,422.570000,452.520000,418.300000,463.720000C414.030000,474.920000,440.690000,451.990000,440.690000,451.990000C440.690000,451.990000,432.160000,437,436.430000,421Z" transform="matrix(1 0 0 1 -84.98999999999999 -85.06999999999999)" fill="rgb(253,194,204)" stroke="none" stroke-width="1"/><path id="eRZTFnrAU4m109" d="M407.640000,744.590000L389,761.110000C389,761.110000,378.340000,763.780000,372.480000,763.240000C366.620000,762.700000,363.950000,772.300000,377.810000,773.370000C391.670000,774.440000,435.910000,771.240000,435.910000,771.240000C435.910000,771.240000,440.170000,754.180000,427.380000,744.590000Z" transform="matrix(1 0 0 1 -84.98999999999999 -85.06999999999999)" fill="rgb(71,70,90)" stroke="none" stroke-width="1"/><path id="eRZTFnrAU4m110" d="M413,740.860000C410.220000,744.290000,406.300000,745.610000,402.200000,745.810000C392.880000,746.250000,382.620000,740.860000,382.620000,740.860000C389.550000,735,371.960000,683.290000,371.960000,683.290000C357.570000,676.360000,358.630000,660.900000,358.630000,660.900000L363.290000,577L364.470000,555.920000L379.400000,546.860000L391.160000,555.860000L402.320000,564.420000C403.047004,567.143194,403.515744,569.928844,403.720000,572.740000C405.020000,592.330000,389.530000,596.940000,389.530000,596.940000C389.530000,596.940000,395.930000,616.660000,390.060000,634.790000C384.190000,652.920000,394.320000,668.910000,394.320000,668.910000C394.320000,668.910000,413.510000,724.350000,410.320000,727.550000C407.130000,730.750000,413,740.860000,413,740.860000Z" transform="matrix(1 0 0 1 -84.98999999999999 -85.06999999999999)" fill="rgb(86,81,113)" stroke="none" stroke-width="1"/><path id="eRZTFnrAU4m111" d="M413,740.860000C410.220000,744.290000,406.300000,745.610000,402.200000,745.810000C392.880000,746.250000,382.620000,740.860000,382.620000,740.860000C389.550000,735,371.960000,683.290000,371.960000,683.290000C357.570000,676.360000,358.630000,660.900000,358.630000,660.900000L363.290000,577L364.470000,555.920000L379.400000,546.860000L391.160000,555.860000L402.320000,564.420000C403.047004,567.143194,403.515744,569.928844,403.720000,572.740000C405.020000,592.330000,389.530000,596.940000,389.530000,596.940000C389.530000,596.940000,395.930000,616.660000,390.060000,634.790000C384.190000,652.920000,394.320000,668.910000,394.320000,668.910000C394.320000,668.910000,413.510000,724.350000,410.320000,727.550000C407.130000,730.750000,413,740.860000,413,740.860000Z" transform="matrix(1 0 0 1 -84.98999999999999 -85.06999999999999)" opacity="0.05" fill="rgb(0,0,0)" stroke="none" stroke-width="1"/><path id="eRZTFnrAU4m112" d="M431.630000,747.250000C422.570000,758.440000,401.250000,747.250000,401.250000,747.250000C401.679331,746.854513,401.999611,746.355153,402.180000,745.800000C406.090000,735.170000,388.990000,684.350000,388.990000,684.350000C374.600000,677.420000,372.990000,660.900000,372.990000,660.900000L369.220000,575.480000L368.730000,564.420000L391.160000,555.860000L398.050000,553.230000L421,570.820000C421.985389,574.463999,422.469842,578.225238,422.440000,582C422.150000,599.210000,408.180000,603.370000,408.180000,603.370000C408.180000,603.370000,414.580000,623.090000,408.710000,641.220000C402.840000,659.350000,413,675.290000,413,675.290000C413,675.290000,432.190000,730.730000,429,733.930000C425.810000,737.130000,431.630000,747.250000,431.630000,747.250000Z" transform="matrix(1 0 0 1 -84.98999999999999 -85.06999999999999)" fill="rgb(86,81,113)" stroke="none" stroke-width="1"/><path id="eRZTFnrAU4m113" d="M422.440000,582C417.830000,581.340000,408.500000,575.790000,403.710000,572.780000C401.880000,571.630000,400.710000,570.860000,400.710000,570.860000C400.710000,570.860000,395.910000,557.530000,383.120000,567.660000C378.959202,571.039447,374.260565,573.696374,369.220000,575.520000C367.294515,576.201801,365.309075,576.700672,363.290000,577.010000L364.470000,555.930000L379.400000,546.870000L391.160000,555.870000L398.050000,553.240000L421,570.820000C421.985389,574.463999,422.469842,578.225238,422.440000,582Z" transform="matrix(1 0 0 1 -84.98999999999999 -85.06999999999999)" opacity="0.1" fill="rgb(0,0,0)" stroke="none" stroke-width="1"/><path id="eRZTFnrAU4m114" d="M451.290000,479.710000C449.390000,491.150000,445.290000,514.710000,440.690000,535.100000C434.290000,563.350000,427.360000,556.950000,424.170000,563.880000C420.980000,570.810000,423.640000,580.400000,423.640000,580.400000C418.310000,580.930000,400.720000,569.210000,400.720000,569.210000C400.720000,569.210000,395.920000,555.880000,383.130000,566.010000C370.340000,576.140000,360.210000,575.600000,360.210000,575.600000C357.540000,558.010000,377.270000,511.100000,377.270000,511.100000C377.270000,511.100000,396.460000,474.850000,400.720000,470.100000C402.696679,467.751910,404.106400,464.980371,404.840000,462C405.167229,460.814410,405.394689,459.603520,405.520000,458.380000C412.450000,457.850000,429.520000,446.120000,429.520000,446.120000L442.850000,443.990000L442.850000,450.920000C443.007715,450.990614,443.155613,451.081370,443.290000,451.190000C445.480000,452.860000,448.290000,459.980000,450.160000,465.590000C451.691098,470.132330,452.079207,474.981980,451.290000,479.710000Z" transform="matrix(1 0 0 1 -84.98999999999999 -85.06999999999999)" fill="rgb(204,26,214)" stroke="none" stroke-width="1"/><path id="eRZTFnrAU4m115" d="M389,529.770000L382.110000,528.970000L329.300000,522.840000C297.300000,512.710000,317.570000,497.250000,317.570000,497.250000L338.890000,517.510000C345.040000,518.740000,369.170000,515.870000,379.980000,514.510000C383.220000,514.090000,385.270000,513.810000,385.270000,513.810000Z" transform="matrix(1 0 0 1 -84.98999999999999 -85.06999999999999)" fill="rgb(253,194,204)" stroke="none" stroke-width="1"/><path id="eRZTFnrAU4m116" d="M440.690000,457.810000C440.690000,457.810000,426.830000,446.620000,406,482.860000C385.170000,519.100000,380.410000,513.240000,380.410000,513.240000C380.410000,513.240000,384.670000,529.240000,382.540000,532.430000C382.540000,532.430000,396.930000,531.360000,402.260000,532.430000C407.590000,533.500000,440.640000,491.920000,440.640000,491.920000C440.640000,491.920000,457.750000,468.470000,440.690000,457.810000Z" transform="matrix(1 0 0 1 -84.98999999999999 -85.06999999999999)" opacity="0.1" fill="rgb(0,0,0)" stroke="none" stroke-width="1"/><path id="eRZTFnrAU4m117" d="M440.160000,455.680000C440.160000,455.680000,426.300000,444.490000,405.510000,480.730000C384.720000,516.970000,379.920000,511.110000,379.920000,511.110000C379.920000,511.110000,396.440000,529.230000,401.770000,530.300000C407.100000,531.370000,440.150000,489.790000,440.150000,489.790000C440.150000,489.790000,457.220000,466.340000,440.160000,455.680000Z" transform="matrix(1 0 0 1 -84.98999999999999 -85.06999999999999)" opacity="0.1" fill="rgb(0,0,0)" stroke="none" stroke-width="1"/><path id="eRZTFnrAU4m118" d="M382.100000,529C382.320000,525.050000,380.830000,518.110000,379.970000,514.510000C383.210000,514.090000,385.260000,513.810000,385.260000,513.810000L388.990000,529.810000Z" transform="matrix(1 0 0 1 -84.98999999999999 -85.06999999999999)" opacity="0.1" fill="rgb(0,0,0)" stroke="none" stroke-width="1"/><path id="eRZTFnrAU4m119" d="M440.690000,456.740000C440.690000,456.740000,426.830000,445.550000,406,481.800000C385.170000,518.050000,380.410000,512.180000,380.410000,512.180000C380.410000,512.180000,384.670000,528.180000,382.540000,531.370000C382.540000,531.370000,396.930000,530.300000,402.260000,531.370000C407.590000,532.440000,440.640000,490.860000,440.640000,490.860000C440.640000,490.860000,457.750000,467.400000,440.690000,456.740000Z" transform="matrix(1 0 0 1 -84.98999999999999 -85.06999999999999)" fill="rgb(204,26,214)" stroke="none" stroke-width="1"/><path id="eRZTFnrAU4m120" d="M437,422.090000L411.370000,437C412.454563,438.573142,413.455936,440.202043,414.370000,441.880000C415.844521,442.179483,417.345373,442.330238,418.850000,442.330000C425.680000,442.330000,428.850000,435.160000,432.980000,430.330000C432.680000,426.490000,435.820000,426.390000,437,422.090000Z" transform="matrix(1 0 0 1 -84.98999999999999 -85.06999999999999)" opacity="0.1" fill="rgb(0,0,0)" stroke="none" stroke-width="1"/><circle id="eRZTFnrAU4m121" r="22.390000" transform="matrix(1 0 0 1 333.31000000000000 333.82999999999998)" fill="rgb(253,194,204)" stroke="none" stroke-width="1"/><path id="eRZTFnrAU4m122" d="M390,400.790000C392.258062,398.474474,395.191821,396.934076,398.380000,396.390000C401.490000,395.720000,404.900000,395.520000,407.380000,393.530000C410.190000,391.280000,411.450000,387,414.920000,386.040000C416.427571,385.738452,417.989355,385.863117,419.430000,386.400000C424.965340,388.073117,429.879527,391.351561,433.550000,395.820000C434.418495,397.102119,435.525219,398.205448,436.810000,399.070000C437.575335,399.393645,438.323043,399.757485,439.050000,400.160000C439.846112,400.792789,440.471686,401.614285,440.870000,402.550000C443.368294,407.596532,443.944145,413.379925,442.490000,418.820000C441.620000,422.030000,440.060000,425.010000,439.130000,428.210000C438.200000,431.410000,437.970000,435.030000,439.660000,437.890000C438.020000,438.730000,435.950000,437.670000,434.920000,436.140000C433.890000,434.610000,433.580000,432.730000,433.040000,430.960000C431.977843,427.485456,429.977823,424.371238,427.260000,421.960000C425.580000,420.480000,422.580000,419.480000,421.410000,421.390000C420.960000,422.130000,420.990000,423.080000,420.600000,423.850000C419.840000,425.360000,417.600000,425.660000,416.170000,424.850000C414.761778,423.877968,413.772477,422.410088,413.400000,420.740000C411.210000,413.310000,407.460000,408.640000,399.520000,411.810000C396.520000,412.990000,393.070000,413.810000,390.220000,411.810000C386.570000,409.130000,387.300000,403.820000,390,400.790000Z" transform="matrix(1 0 0 1 -84.98999999999999 -85.06999999999999)" opacity="0.1" fill="rgb(0,0,0)" stroke="none" stroke-width="1"/><path id="eRZTFnrAU4m123" d="M390,400.250000C392.258062,397.934474,395.191821,396.394076,398.380000,395.850000C401.490000,395.180000,404.900000,394.980000,407.380000,392.990000C410.190000,390.740000,411.450000,386.460000,414.920000,385.500000C416.427571,385.198452,417.989355,385.323117,419.430000,385.860000C424.965340,387.533117,429.879527,390.811561,433.550000,395.280000C434.418495,396.562119,435.525219,397.665448,436.810000,398.530000C437.575335,398.853645,438.323043,399.217485,439.050000,399.620000C439.846112,400.252789,440.471686,401.074285,440.870000,402.010000C443.368294,407.056532,443.944145,412.839925,442.490000,418.280000C441.620000,421.490000,440.060000,424.470000,439.130000,427.670000C438.200000,430.870000,437.970000,434.490000,439.660000,437.350000C438.020000,438.190000,435.950000,437.130000,434.920000,435.600000C433.890000,434.070000,433.580000,432.190000,433.040000,430.420000C431.977843,426.945456,429.977823,423.831238,427.260000,421.420000C425.580000,419.940000,422.580000,418.940000,421.410000,420.850000C420.960000,421.590000,420.990000,422.540000,420.600000,423.310000C419.840000,424.820000,417.600000,425.120000,416.170000,424.310000C414.761778,423.337968,413.772477,421.870088,413.400000,420.200000C411.210000,412.770000,407.460000,408.100000,399.520000,411.270000C396.520000,412.450000,393.070000,413.270000,390.220000,411.270000C386.570000,408.600000,387.300000,403.290000,390,400.250000Z" transform="matrix(1 0 0 1 -84.98999999999999 -85.06999999999999)" fill="rgb(143,90,106)" stroke="none" stroke-width="1"/><path id="eRZTFnrAU4m124" d="M443.260000,451.150000L432.430000,451.150000C432.430000,451.150000,411.110000,461.810000,410.580000,461.280000C410.220000,460.920000,406.920000,461.540000,404.830000,461.970000C405.157229,460.784410,405.384689,459.573520,405.510000,458.350000C412.440000,457.820000,429.510000,446.090000,429.510000,446.090000L442.840000,443.960000L442.840000,450.890000C442.990206,450.958979,443.131282,451.046311,443.260000,451.150000Z" transform="matrix(1 0 0 1 -84.98999999999999 -85.06999999999999)" opacity="0.05" fill="rgb(0,0,0)" stroke="none" stroke-width="1"/><path id="eRZTFnrAU4m125" d="M436.560000,763.860000C436.528343,765.804082,436.303911,767.740228,435.890000,769.640000C435.476089,771.539772,391.650000,772.840000,377.790000,771.770000C371.120000,771.260000,368.290000,768.770000,367.790000,766.390000C367.180000,769.130000,369.600000,772.740000,377.790000,773.390000C391.650000,774.460000,435.890000,771.260000,435.890000,771.260000C436.411138,768.829409,436.636108,766.344666,436.560000,763.860000Z" transform="matrix(1 0 0 1 -84.98999999999999 -85.06999999999999)" opacity="0.3" fill="rgb(255,255,255)" stroke="none" stroke-width="1"/><g id="eRZTFnrAU4m126" opacity="0.05"><path id="eRZTFnrAU4m127" d="M378.060000,565.480000C370.870000,571.180000,364.510000,573.480000,360.330000,574.480000C360.330000,574.880000,360.410000,575.270000,360.470000,575.650000C360.470000,575.650000,370.600000,576.180000,383.390000,566.060000C385.371776,564.361866,387.714387,563.137553,390.240000,562.480000C387.450000,561.110000,383.470000,561.200000,378.060000,565.480000Z" transform="matrix(1 0 0 1 -84.98999999999999 -85.06999999999999)" fill="rgb(0,0,0)" stroke="none" stroke-width="1"/><path id="eRZTFnrAU4m128" d="M450.400000,465.540000C448.490000,459.930000,445.720000,452.820000,443.530000,451.140000C443.395613,451.031370,443.247715,450.940614,443.090000,450.870000C442.932285,450.799386,438.680000,451.020000,438.830000,451.140000C441.020000,452.810000,443.160000,459.400000,445.070000,465C446.617778,469.552260,447.016263,474.416533,446.230000,479.160000C444.330000,490.600000,440.230000,514.160000,435.630000,534.550000C429.230000,562.800000,422.300000,556.400000,419.110000,563.330000C416.490000,569.010000,417.800000,576.470000,418.370000,578.980000C420.093858,579.842725,421.983454,580.323651,423.910000,580.390000C425.836546,580.456349,421.240000,570.800000,424.440000,563.870000C427.640000,556.940000,434.570000,563.340000,440.960000,535.090000C445.590000,514.650000,449.660000,491.090000,451.560000,479.700000C452.346263,474.956533,451.947778,470.092260,450.400000,465.540000Z" transform="matrix(1 0 0 1 -84.98999999999999 -85.06999999999999)" fill="rgb(0,0,0)" stroke="none" stroke-width="1"/></g><path id="eRZTFnrAU4m129" d="M512.350000,565.110000C514.182770,563.615856,515.518405,561.600199,516.180000,559.330000C516.680000,557.030000,515.700000,554.280000,513.500000,553.440000C511.040000,552.500000,508.410000,554.200000,506.420000,555.930000C504.430000,557.660000,502.140000,559.620000,499.530000,559.250000C502.258729,556.776480,503.488783,553.052148,502.770000,549.440000C502.657181,548.703976,502.346049,548.012571,501.870000,547.440000C500.500000,545.980000,498.030000,546.610000,496.390000,547.760000C491.190000,551.420000,489.740000,558.480000,489.710000,564.840000C489.190000,562.550000,489.630000,560.160000,489.610000,557.840000C489.590000,555.520000,488.950000,552.840000,486.970000,551.620000C485.742191,550.960285,484.363325,550.632804,482.970000,550.670000C480.630000,550.580000,478.030000,550.820000,476.430000,552.530000C474.430000,554.650000,474.960000,558.220000,476.690000,560.530000C478.420000,562.840000,481.040000,564.330000,483.460000,565.950000C485.399532,567.103074,487.053936,568.678859,488.300000,570.560000C488.446557,570.820888,488.567135,571.095540,488.660000,571.380000L503.310000,571.380000C506.592397,569.707398,509.633328,567.598257,512.350000,565.110000Z" transform="matrix(1 0 0 1 -84.98999999999999 -85.06999999999999)" fill="rgb(249,4,125)" stroke="none" stroke-width="1"/><path id="eRZTFnrAU4m130" d="M539.260000,752.880000C541.590000,750.710000,543.780000,748.150000,544.460000,745.040000C545.140000,741.930000,543.810000,738.190000,540.830000,737.040000C537.500000,735.760000,533.930000,738.040000,531.230000,740.410000C528.530000,742.780000,525.430000,745.410000,521.900000,744.910000C525.598245,741.555756,527.264812,736.506704,526.290000,731.610000C526.135031,730.616219,525.713393,729.683086,525.070000,728.910000C523.220000,726.910000,519.860000,727.780000,517.650000,729.340000C510.650000,734.340000,508.650000,743.870000,508.600000,752.490000C507.890000,749.380000,508.490000,746.140000,508.470000,742.950000C508.450000,739.760000,507.580000,736.230000,504.890000,734.510000C503.214628,733.609558,501.331005,733.167976,499.430000,733.230000C496.260000,733.110000,492.730000,733.430000,490.570000,735.750000C487.880000,738.630000,488.570000,743.460000,490.920000,746.630000C493.270000,749.800000,496.820000,751.790000,500.090000,753.980000C502.715147,755.544800,504.953932,757.681045,506.640000,760.230000C506.839889,760.586250,507.004023,760.961413,507.130000,761.350000L527,761.350000C531.449707,759.092088,535.573724,756.242950,539.260000,752.880000Z" transform="matrix(1 0 0 1 -84.98999999999999 -85.06999999999999)" fill="rgb(249,4,125)" stroke="none" stroke-width="1"/></svg>